<mxfile host="app.diagrams.net" modified="2024-04-23T22:57:31.600Z" agent="Mozilla/5.0 (Windows NT 10.0; Win64; x64; rv:125.0) Gecko/20100101 Firefox/125.0" etag="aPyg7RAfakJ-OFkvkCuB" version="24.2.8" type="github">
  <diagram name="PÃ¡gina-1" id="uGRJmmaP-yBJnHiho_BR">
    <mxGraphModel dx="1406" dy="808" grid="1" gridSize="10" guides="1" tooltips="1" connect="1" arrows="1" fold="1" page="1" pageScale="1" pageWidth="827" pageHeight="1169" math="0" shadow="0">
      <root>
        <mxCell id="0" />
        <mxCell id="1" parent="0" />
        <mxCell id="cir0vFDCaRxPxwiS-EN_-6" style="edgeStyle=orthogonalEdgeStyle;rounded=0;orthogonalLoop=1;jettySize=auto;html=1;entryX=0;entryY=0.5;entryDx=0;entryDy=0;" edge="1" parent="1" source="cir0vFDCaRxPxwiS-EN_-1" target="cir0vFDCaRxPxwiS-EN_-2">
          <mxGeometry relative="1" as="geometry" />
        </mxCell>
        <mxCell id="cir0vFDCaRxPxwiS-EN_-1" value="&lt;div&gt;Application Server Azure&lt;/div&gt;&lt;div&gt;&lt;br&gt;&lt;/div&gt;" style="image;html=1;image=img/lib/clip_art/computers/Server_Rack_128x128.png" vertex="1" parent="1">
          <mxGeometry x="90" y="190" width="80" height="80" as="geometry" />
        </mxCell>
        <mxCell id="cir0vFDCaRxPxwiS-EN_-7" style="edgeStyle=orthogonalEdgeStyle;rounded=0;orthogonalLoop=1;jettySize=auto;html=1;exitX=1;exitY=0.5;exitDx=0;exitDy=0;" edge="1" parent="1" source="cir0vFDCaRxPxwiS-EN_-2" target="cir0vFDCaRxPxwiS-EN_-3">
          <mxGeometry relative="1" as="geometry" />
        </mxCell>
        <mxCell id="cir0vFDCaRxPxwiS-EN_-2" value="" style="image;html=1;image=img/lib/clip_art/networking/Firewall_02_128x128.png" vertex="1" parent="1">
          <mxGeometry x="290" y="190" width="80" height="80" as="geometry" />
        </mxCell>
        <mxCell id="cir0vFDCaRxPxwiS-EN_-8" style="edgeStyle=orthogonalEdgeStyle;rounded=0;orthogonalLoop=1;jettySize=auto;html=1;entryX=0.5;entryY=0;entryDx=0;entryDy=0;" edge="1" parent="1" source="cir0vFDCaRxPxwiS-EN_-3" target="cir0vFDCaRxPxwiS-EN_-4">
          <mxGeometry relative="1" as="geometry" />
        </mxCell>
        <mxCell id="cir0vFDCaRxPxwiS-EN_-3" value="Proxy&amp;nbsp; NGINX -&amp;nbsp; 10.10.152.16 " style="image;html=1;image=img/lib/clip_art/computers/Server_Rack_128x128.png" vertex="1" parent="1">
          <mxGeometry x="510" y="190" width="80" height="80" as="geometry" />
        </mxCell>
        <mxCell id="cir0vFDCaRxPxwiS-EN_-4" value="" style="shape=image;verticalLabelPosition=bottom;labelBackgroundColor=default;verticalAlign=top;aspect=fixed;imageAspect=0;image=data:image/png,iVBORw0KGgoAAAANSUhEUgAAAZAAAAGQCAYAAACAvzbMAAAABGdBTUEAALGPC/xhBQAAAAFzUkdCAK7OHOkAAAAgY0hSTQAAeiYAAICEAAD6AAAAgOgAAHUwAADqYAAAOpgAABdwnLpRPAAAIABJREFUeF7snQdgG0XWx5/ce4md3jvphBaSECCFAKEEQr07ODrcHXCUC71DgNDLwXF3HL18dAg1JAQCIQRC6CW9N9uJe6/65v9mV5LXki3LkqzyfqBY2l2tdmdn3n/elDc2u4IEQRAEoZ3EWDcIgiAIgjeIgAiCIAg+IQIiCIIg+IQIiCAIguATIiCCIAiCT4iACIIgCD4hAiIIgiD4hAiIIAiC4BMiIIIgCIJPiIAIgiAIPiECIgiCIPiECIggCILgEyIggiAIgk+IgAiCIAg+IQIiCIIg+IQIiCAIguATIiCCIAiCT4iACIIgCD4hAiIIgiD4hAiIIAiC4BMiIIIgCIJPiIAIgiAIPiECIgiCIPiECIggCILgEyIggiAIgk+IgAiCIAg+IQIiCIIg+IQIiCAIguATIiCCIAiCT4iACIIgCD4hAiIIgiD4hAiIIAiC4BMiIIIgCIJPiIAIgiAIPiECIgiCIPiECIggCILgEyIggiAIgk+IgAiCIAg+IQIiCIIg+IQIiCAIguATIiCCIAiCT4iACIIgCD4hAiIIgiD4hAiIIAiC4BMiIIIgCIJPiIAIgiAIPiECIgiCIPiECIggCILgEyIggiAIgk+IgAiCIAg+IQIiCELIYbfrlycaG5qorLCGNv1cSNUV9dbdQpCw2e2tPSZBEAT/AFMDa2NT/ynLQzabzXoINTXaqXRPNe3dVUn5W8vUq4L27qig4oJqqi6vo+rKeqqtaqC6mkZqqGvk8819ahoNP7Cb2/MJgUUERBCEDmOaEVcjrrcpuVCbmprsVKM8hYrSOiovqlGvWvYgivIqqUSJQ3FeFYsEtlWW1aov8/+QGu2JqDcxOBFvMD0U/ZsXPzyFxk/v4/hdIXiIgAiC4DWmKNiVINiMBvDGBrvyCBqovraR6pVnUK08hCJ4ENvKKW+Lem0qo4Lt5VSmhKNJHWsKg0lMjBYG7aFoheD97K7oI91aKUNMzrzpQDrs1CHWvUIQEAERBMHRvGTCRt0CmpcKd1YqUSijbWtLaPvaYsrfWq68iColHg28H56GvYlYYGJi4X1osTGFR/sVwOb0Whz/eBAKTxjuybEXjaETLhlj3SsEAREQQYhwuIQbtXnXbgKzgg8Poqq0looKqqhot/mqpEIlDJXFtVReUkuVpXVUXVZHtcrTMM8DoTDO5Dwp4yoUTgJhaSB0U04aTGfcdID0gXQCIiCCEKa473dwvOP3ddUNVFVeTxWGCFSqv4VKHIryqqlwVwWLBfoeKpWAwFOwngfNVOxF2M3fwxv9eywinWg98PsxsTE0anIPuvSfh4qAdAIiIIIQ4jial+AxxDg7pc2mIgxprattoOL8atq9sZR2biil7WtLaPfmUiopqOHRSsaZyGwrMvsdzM1NTU0ehCi0iYkl6jM0m2567UgRkE5ABEQQOhEIQWvDWtG8VLq3mvZsL6e8zeVKFMpoz7Zy5UVUUY3yLtBpjWalxtomamhobN5MxcKA8xofuag7vQeTcLYAEMKsbsl0z6LZze5JCA4iIIIQANwZa3MbN/0ow15ZVkdle2uoKL9KeQ9VVLqnhgp3VfJoJR7mWlRNVaV1VFPVoJuXuClJj1AyCy2Lj9FcZf5Ok/qAIa/RULJxz7HxMfTwF3MoKTXeulsIMCIggtBBUMvXzUv6c0NdE9Uq7wAT3mD8q8rruK+BJ8dtUR7E9grau7OSSgureVgrC4pLKTT7Hcxz2/j0Tg9FSqwTM+3u/ug4yumV6nb0mBA4REAEwQ1cKux6zgJwZ5ga65vYe9i1sZS2ri6i7WtKaNf6Uh69hGGt2jcwPA51rtjYGKcQQBTcFD03m4RWML2ua188ggaOznH7nITAIQIiRBXI7maOh/Gxzpw25y1UFNfSXgxlVZ4CPAY0LUEsMJoJsZfgVVRXNFBDbSN7CZjzoJuZiDu3XU7raF5yLWgsLlLyOgyno/rnrw8eQuOn9uHnIAQPERAhYnD2O7g295jbNNUVdVRVVq/DaRQb4TR2G+E08FIigX4JCIUpKOhTMAcwcd+C+cHFQ+EmLL1JCCKmUP/h2v1p6h+GNRNuIfCIgAhhhykKpoGH0Wiob+JQGgiyh7/og4AwFGyr4JnTuzeV0Z4dFRyoD8caZ+LzOIXBlB94EVAEp/RIKQldkAeOPm8EzblsnHWXEGBEQISQwdG8ZNb23bRnI1xGyd5qFoZd60u4/2H3lnIqUZ4DvIuGejv3TWDuQ6M61nW+gzmSyeE5GDnfWmuVEhF+HHLCIDr7jgnWzUKAEQERgoJrLmveP2A0E2FYa2kdlSCcRl4VFe5Sr916pnRFSR3PlOb+h/J69i70/AZ9Ij6HS9OVo9nKEArz9ySnRyaYXDlmSk/6+2OHWXcJAUYEROgwpgiY7/Ub1Pz1+/raJqqprHd2PisRQDgNdExjOCvWe8Dn8iJ4EI0u59K90WYzlWvTFdSgeQe4460QZcDLHDK+K1397HTrLiHAiIAIXuFoXjJAodXhNIwIrI12bjJCfCWE8N6xtkS9irl5CULh7HcAdkMYcJ4YZyc1n985KU5ypuANGHnVa1Am3frW0dZdQoARARGMcBrafrvrd0CsJTQfFWyvpPzNZRxOA2s9YM0HeBUIpVGvXg11dvYgYP1xHlN07I44S/pXDEfCEAwtTvp4528Kgrdg4mV2t2S6d/EJ1l1CgBEBiWAcfQFG34De5tjL+7BKXFlxDQ9dLdmjV4TD6KVS9RkjlvAXQ14R0RUd2DwRjr9vNCXBi3D0O+jzO1qWIB7GW8E/NOvPcUlnc180lmbk7eT0OHp42UluK0BC4BABiRBML8JsGsIoJATbq6tudPQ/IFrrnh3lPDEuf0s5h9YoLaimhgbtIbhmBcfoJcOLMAXHfCfKEBxYFPiv8aZZZcAcNIADjOfDz8scVBAdjwmd6Miv930ymzJykqy7hQAiAhLiuMZZcu00duxv1NFaud9hnV4lDkNbi3ZVOUYr8UuJhPYOtDCYtVXX+Q5Oj0XTrLYrBB3H40alQP1pVM8qISGW9jmoOx1wZF/qNyKbEpPjeEb8+u8L6Mu3N6s8UOx4nqbmR/7z0zd60yszqd/ILm7LiRAYREA6CSS7mfKubrezVmmnypI6Dp+BCXB6pFIVh9ZAf0RVBVaIq+dgfbXV9UpJcCKcQRsbdEzjrz4XxMMQDv4Np4AIoYf5bDg4o3puGTmJdMiJg3moaq/BmZScHs/7m+cbXRlAXvn242300VO/86RKwgAHl+ceibBeqH8umD+RDjyyvyOopRB4RED8jGtyNhva6lK5r61u5JXhELKbw2kUVVNJfjXPf0AoDYTVQH8Ewn0jWqsx7c2wAIYQuLgHjp+McEMRDTjEQ73pMyyTjrlwNI07rBfFJTitYms1bDP/Yf7MO4/9TCve2+IYMRexlQajPBz/l9F0zEWjpB8kiIiAdABuXjLgQoqhrA1NPGQVs6HNVeJ41vTGEtq1oYzytpTycqJ1tY3a2KNNG/+x8VfegrmwkL35YkAm8rQiF+Oxc77oMTCDbnr1KBYOXwyiFiGiX5fvpv9ctZxqK83Jl879kQT6QQ46uj+dd9fBPqWX4BsiIBZcm5aQDZEx3QEPAcKwe1Mp9z3kb9XzHdBZzaE0DCGBB6FrSMYXIQx2Y9isUcjNv1bkyUQPjuev3vQbkUXXPDuD4hNjPXobiBaMTJSameg275hANKrL6+jecz5VFZgSox/elKnIAWkwcGwOXf/iTOsuIYBEpYCY/Qzmeyd6WCsW+oHnwE1JBQirgVnStWo7IrjWcOGtQY2u0SVut908L05jbmsuRmaZjb4UF9pC5xuizJxkmvv0NOrWL73NmjQ8i1Pn7sdLurYmIsiXmP3/5sM/0bI3N3K+RcUoovKhuv8u3VLo7oXHUWycdIIEi6gUkJ0bSnluA8db2lWhV4pT3kRJXiWVFdZSfZ1rOA1zeCwKuQ7ljaYm7UVANYzjnKcXhHZheqHg8n8fTqMm9fDoeZggX7796M+0+pt8uua5GRQX37rRxPlxynef+IU+emo1e8fodHf97fDGTokp8fTg0hMpIcmz5yb4l6gUkHvPXkLrvivQoqA+24zFgLgPAgcYSWIWuuhLISFYmPkLtebJJwyiM28+sFVvwgTFFvN5bjj2fdp3ah+6+JEp1kM88u3HW+l/16xo1ocX7nkcghGvhANzQVLSE7xKQ6HjtF5tiVB6D82kmDjTw1Av9FM06fZiCAlvMwpUuBcsIXRh8YBHq/7m9k6lP1y7n9eGDwYTzVyD9+1KvyzbRRt+2sui4g0HHNGP/vrwFGceJ30tYY3Nzk1zWAtGCB5RKSBd+6Tpzm2XAuRd0RME/wKvNyE5js6/ZyLFJcRad7fJ2EN7cRDL/171Fa+06I2IoP9jnPrelf+d6mjqcfTfhSsozk2IwIAJUW2ngeAfolJAclRtTxA6E9hq09Od/sdhNIBnUFuPah0Y/cHjcjlYZXFeJU8g9LbtHyIyYkJ3uv2dWZScEs/fC28R0cPoXfsvhcATlQKSacTLibZ8hvvFLfNtqw8Ig80hUvCK1XNZOE1wXJSlTWeAfo+BY3Jo9sVjfDJ6EB80YwF8fclLay1HtA5EpGvfNO6Ex+8jKGa4wtNtVYIgAKgQPKJSQJLTE6ybIhYWDcfL+SElLZ76DM1StdAeNGpiTxo4OpfSuyTiG/wfjtH2RJoDAoIh4BfeO0n99a0YQvAR5iQzNxkRSzjM/pqV+VwT9xaIGPoE//LAZD4H94dYDwoDuN6j0gND771pxhP8Q1SOwkK4kKtmLGADGYl3b1YkHcZA/ZOQGEf9R2bTmCm9OBgfjEZCUpyjsEFcYHgwKRJNIasWbePVAjnYInf0hte8AfPZ6pq988I78x6cFXwbJSkB//tjh9KQfXM9Tlb1BtzPY5d+Qb98uYs7kaecNITOuvUg62Ftgue8cuFWeur6r9slQKGCKSDw5mZdMMolrYVA4lvVJ8xBMLpYDN217ghzTAeDjSRquKpApWQk0CFzBtPdHx1HVz87g44+byQNGNWFxUN/B56GLm2oEfcZnkVzLhtLdyw4hqaeOpRrqDYd1c/5QyGKef9mGuB+8IpPhFCagtLyO67vHS/Lvo6ir8nO84di42x08hXjaOh+XTskHiZ9hmXxX6zuuG11sWWvd+A6JswaQDPP2scxEc+f9x9w8MzUPRRsL7fuEQJIVApIYnI8ZXVPMYyndW/4YRo915vBSLML7plE8949hs686cBm6yS0ZrR0P4iNJ6adfu1+9NeHDmGDhxLq+VuhAftKdj2fB58Q2uIfT06lIeNznbO6jT/pXXR6mB6JKTqawIil2c9wyj/G02GnDLHu9pkuPVP4L/oBSvZUWfa2j5Ov2JfGHtZLpweFkYhwBcHOXnOgnp/QkqgUEIAmnHDPaI7CbbxJSIxVtcj+PJv59rdn0YFH9qO07KQ2Q2J4ArV3DPc8QwmQ9mpC06CYAoo1lWCkB++XS3Ofmk7XPX8EN+38/nWebqpTx3Tvn0Fn3HgA1dU0GN9zyQPqc0ZOMvUcpGr0PqaZFYe4KzBM98+3HUTT/ji0+UEdJNbsQ7EjRlYdR+L1FSQTmsDg1Zid6qH4zK3oygOap9EHYt0rBIroFBCVw/oOz+aaarjlNZRlp1HSTTSZuUk8i/k2JRrnz59EIyf2cIT/7mjhh7eCc8/88z5snE0hCQX43mx64ifeI5TFiZftS1c/M52GH9CNKktr6fPXN7IhxH1grQiMOFr33R7HhDO7KgIwwBjafcz5o+iyJw6jgm3lHa5bmM+Ir039NjweRIqdcuJgTkd/wpNiDQva1NTE/Veus8zbAy4tLSuRzrptAkdoCJmH7SVYXK0e66AIQSEqBQRFq//ILtbNIQ9qy7w4UIw25KmZCXTOHQfT/UtOoLNvn0A5vXRThq8eR2uccMlY3aSBIb++2Sa/4xoKP6tbCj2yfA4ddbYWOqTRY39fRjVV9RwbCd7IhfdOpN+W76ZvF27j9OM0zIinvzw4meZ/dDyd+Pex9PQNX+uIBPjPh/tk4XC81+8Gj82luz88jvab3td5oN+wU2JyrNY7raj02SvrOlxx6D8im85WImIqaUfPFxTUA6urbqCqcu8mVAodJyoFBAa256AMXTRCPJ+ZNVltjGLYOI2e3ItueHkm3bt4Nk04pr/Lsf4p5dZwEDhtfFIMCxWHD0c/CbY3OyrI4Mc5kKXu/L359aO48xceGYwHFuda//0e2n9GX7pLGe/+o/RSpx8+9TvvRwTby584nO5ZNJvGHd6bReN/16/g5YCRJeC1IJ9wnxAE2VAG+KzOZ2KmgXMb/jGcARowOoeue+EIuvJ/U5V3FMfX5m9wT2lZSXq0nPHDe3ZUUtneGp8E0AT3fNDR/XjEHujIuYIJrhOepxnkVAgsUSkgICs3mTuK/WV0/YmrgWKboF4IEHfInIF04ytH0qWPTeEJaKhZB8LbeOvRn62bOJ3QVIb+g7jEGNN2a6MZbLDolvoPgjH19KH051sPZGFz7FYXhaVd51w2js6982Ce34Lr/G7xdqqprKeTrhhH9yw8nkYf0pNr79i3Y20xbf2tiLr1TVevNMrunqJeyZSmvgtPLzk1jvuYYuJinbVb4yHZYmL4GSWmxXPNferpQ2juU9Po+peOoMH75lK8DyFK2kNadiLnA1cbv2tTWYefDeannH/3RMroovvROnq+QKMfi50jbcODFAJPVM4DAbXK1b16xgKqqqg35jqEBlo0cD1aPWDIpswZRMf9ZTRvwrbWRlH5g+duXUmHnDCIRzFZBQrZ5asFm/mYJg47FLyQ4E4DBvGw0fQ/DaOTrxxPSBRrRaCxQQ+XdQVryeN+MIzbenxb8AqTdY28zjjWjCkrrOEX8k6C8i4w6i23d5oSC10ng0djTbtAgclzVx/5LtmxPg3yh/J0Dj52IJ1zxwS/GP2lr66nF+et0t5WkJ51R8DoQ6xO6I97F1onKj0QGEHUXs25EKEGate9BmfSdS/OoDsWzKLj/zZGNxtxbTewpQKGD80+i19Y49YA4homHjeQzr3jYDYo7o7xN+j7MY2Bvn87z1eAeGgnoOU1WMUDoHMY82LcHd8WscpbTU6N5zA43fqlsWcxflof2k+l1ejJPanHgHSHeIBgpAvQeRnDrnX+YI9VPcNvPtzCgumP+uGUkwZzzC0b5od0/HQBp6q0TsQjSESlgKCgoYCjXT8Uq1PcSa4qk8/f+i3NO/1juvH49+mm2R/S3Wcupi/f3si14UCBdBl+UDfaurqYKsvqrLsZtOUfNKs/r0GBsDCBSEEWBvzlR6StAZZ4HTulF5116wSaffHYTjMSZv4xJyrq5p1OuhjSw4Pj49GR7nwSyCM/LNnhcpTvoCnr9Gv2oybkO/PBhDAYiSUEh6gUEADDlNk1JRT1g2uQ+VvKKG9zGS+nm56VRDP/PJwnxR1y4mCuDQcS9A2NOKg7vf7ADx7DWsBw7ju1N19T/xG6g5ptaEeNC3sUxntlmDG6CvNZ0CyBTvyLHz2UDpkzyK2HEY0g3SGsWEzJteMY+XvFu5v9Imw4BfrcDj0ZQ5AppL0Q3G+JCEjQCKwlCmGQ0br2TtUVqo6XsQ5hXgNeEDT2QNR/GCl2zXNH0DXPz6DJJw4KWpMb0mbMYb3ou092GM0g1iOc9B2eRTf+30yaedZwPQrKaLpxvafWMHebx8VgmLA6R4+BGfTXByfTfYtn00X3T6YDlIjo5ifHVwUDiCn6X3RfkM5DeG34cQ+tRXBFP/Xx/fnWgyg1Sw9I6HBFIQDo/GbndVGE4BC1AoKaNc9GDxGLpI20vpaxh/amee8dS7e8cTT1G5nN24LVpg5wLX2HZVN1WR1989FWbLEe4oD7ZtTrpMv3pbs+PJYmHjfAcgQUEQdaNmOTsU33a9h4tNK0PwznOFy3vnk0jZ/ax3FsMO8/3MDz2uegbs3ysvnu1ft+aO3xtQsI0ZSTBjk+h0jRccCVL+V6YXCDEByiVkBAz0GZzupaJ4Jfh4FEcL0rn5xGZ99+EKVlJlJFaR011AV/Vi0MQ5ceKRxY8cP//kbVFQ1tdsaiSQsjxjCx8ba3j6Yj/rwP5fZCrVjPXQGuHonD9tj0hMijzh3B3zvt6v24k5qDOIpoeA0qHe6eEYbzIsKyu33tBc/u6HNHUpee8NxD79ngkprsTVSpvGYhOETtMF7c9p7tFXTDse8bny0HBBFtWG2UlBqnjHU9G05MZOs1JJMu+eehbMyDDdLji9c30At3fMshOA4+doDXRgNpax6LOFRfvrWJtv5eREX5VbzkKM8gV+fP6ZVKk44bSMdfPIaPDebQ10gDaTd36jtUjiZHlyYrpCeCLcKrQ1+JP1jy0jr6v/nfEao+PPKrE8uOFdwvmtkeXHqC1/lV8J2oFRDQWG+nyw99k2qqGjp1LgjyOT8GCAk6AdS1TDhmgDLcEx37O4PSvTV03ax3ObDe9S/OtO72CqSr6UkgzMRPn++k5Qu20Iw/DaXRh/SyHB2dYHIjZo+jP8k1vdrLQxctpdXf7KYmw2k18w2y1gX3TqYJR/dzHuwjyKfV5fV02ZQ39bWGmIDgpjEI5IFPT5A+syAQ1U1YsfFY0Q1hvZ3zDDoDXf70UNCk5DgWDswA1p6J5eAgkpyGeQ/JtOXXIvp9BQxT+y2FaQxheBLUvR1wZH+67F+H0qjJPS1HRi9JqfG8suBr931Pa74t4G2+GGUEkMQzMrMMnwP1EvUMXrl7FY/o62hFCXkUEzERG40rOx07nd/B8BOsi879IL4kotAuolpAQGbXJJjuTikIpkCgwKPNf+TEntxxDu8jFECTxzBllGB0PnpqdYdiOZnNCfqeO3feRCiCisypV+1Hqz7eRo/87XNa910Bi4G3DQQ4bNzU3noEn2vFA1m7qYn709Ds5Kt34wqe3aTjB/GibOw1d/yUfgW3iFho3qWc0BGiXkCyMBfEHCkUTFCwjRyOiWBHnzuCg/uhXyBUCiSM16TZA9jobP61kBoCOIEx2jEFFWuvjJnSk5ujHr98Ge3d4Z3XgK/3HpJJQ8d30/1Ixle4ZdSGial2+nHpTlrx/hafPEkrCEbZZxhGCIZIZnVF3W/RbiwsJQSaqBeQbFUQMOs7mJgCgXUoUMu/6pnpNPuSMQ6PJFSAIRq2XzcOpocYUK/d94Pf5hQI7sHzP/zUoRzF9/cVeXTznA/p33OX8z5vvBGMZsPa6K5Hml9D1nrh9pV+M65/uG4/vqZQC1yIa8LKhCFUlCKWqBcQLCQEvCibHYbFwfA8MMpq0LgcuvP942igEWo8FIH3gbVTcM2fv76Bh0gGI62iGTQV9huRRde9eATl9Eyl7z/ZQZcd8iYteOwXqq1qsB7eDDQ5ZuSmaLVwyVLIXjD0WGzpvvM+1U08HXiOOB/iY2GyayjlXfa41H/F+VV+aa4TWieqBQS16czcZH4f6DLABdilxCIIH1bHQ1NAqGf04Qd245XuGhsaaePPhQFPKwH5xcajstCs2XNwBlVX1tMHT/7G8dCwzomnZqjE5Dj66wOTKS4eoU2c+do0rPgWlrx9cd63fompBhGBBx9KeQLlDBGKhcAT1QICYMBBR2pjbeEoxFyEbTTjT8M5PEdjQ1NIFTx3QGT3mdBdeUxYrCmG3n/iV2nGChIQkZyeKXTjyzN5LXdUNHZuKKF7zvqEnr3lG174y9o/gvyECal4WT0DM4/DE/nli1300p2rmu1vLxAxRCQOtTyM6ynHolJCwIlqAUEBC4oHYpTcWGUAENX05CvHUV1NA339/haeJRzKoB8EnbNYLhc1zS2ri7kGHOx+o2gFohGfFEc3v3YUHTBTz+NAXkXeuWXOR7Thx72Wb7iGHGnZO4FsrrO6jVa8v5lXaPQVNLUN3b8rD892Dh4OAdSlNFhW1RQCQ5QLCFF6diIvNxpQBbFh7ZFYDtOBVe6euekbumbmu/T6Az9SVtdkrzpHOxMYivHT++A2uBGEo7xGdc4JLsiaWO/jwnsn0fQ/DscW7ijfs72cHvnbUlr0/Br2Zk0g+qtX5OkPlqyFrMbZTdUAMJH27Ud+phXvbfHZA8dcoX4junAQzFABXn5bfUWCfwihx945QDwQKgSFNFAaAoHo2jedFr+4lv51xZf07UfbePbxn248gONAWZsaQg1c35hDeul2d3WpPy3dyaOyhODBQ3FVPoIHixF7MVhGVz2O2io9Ou6Ve77nMDgmiIHVmijAY7Bz54WdnrphBX2/ZHuL5jBv6T8iq4VQdSZIp1rJn0Eh6gUEma1bv3S8s+7yKzvXl1LRrko2wHZVaHsPy+J1LkK9Ax3AEGHJVv3expPSlr+zyWNHrhAYzIrGMeePpJP/MZ7zktlytPTVDfSfq5Y7vNmK4lovvERkRn3eJ6/+iuOWtfeZ4rvd+mWEXL8YRpuF2jVFIm1mscjHRj0HZvDfQGU3XcbtnKG5G10VujNvOjDkm65MYLcycpMoLjHG0Qay9LX11sOEIIFKxxFnDqc/XLs/5yFetVH999tXefTPS77gY3QoD8sX3aAfp53XkH/s78vYE2kv6dkJ1k2dCm67ob5RiaiEdQ80US8gMI7d+6cbxj0wOMsxqnt2mnraUBoQwnM/3IHhoSMP6u7wmAq2VXAtV+gckHWm/WEYN2npPg3iJqifl+2k+8/9lAOEeo0hIoiU/J+5XzkqB95WcLw7KojY9QgxBKj09h4E34h6AQG5aJ7RFevAYkNnaCwdfd7IwP+Wn9Eje4aQTijiOSGfvLTW53ZzoeNARKYrETnz5gN5YirXgOw2WruqgJ9L+/OYVqIX562il+/+jjvZvaFwd5V1U6fCSaEsW/7Wch/SQGgPIiCK9KxEvYBRID0CNDWo/865fYIO4BjAnwoEGNkz5tBeHLeLm86biD5+dg1VltVJLa8GrvcRAAAgAElEQVQTgUc45cTBdMrc8Q4PGp3jeO9zHrOjT2U93TLnQyov0pEHPD1jbMacEpt/lhrxGyjLuzaWBaxVQdBEvYCgAGAhJ72QkftC0lG4IKt/UjISaexh4bsGBtZZQFwso++Vh44i1HtAhVdoEwyznnHmMDr2otEsKPw88IzamZ21UOj8iiaggm3ldMNx79N7//6F1wAxRcQ8L7zSZW9upHXK46FG7QCFCri2vM1loXVREUjUCwhITI0PQg3KRvsf0YeHDYezwcWQZzYypA0Xwo97qp0KwQN5avbFY2j6H4exiJhC4Avm8wXV5XX03hO/0XVHv0dvPfoTrVmZT9vX6Mmkr8z/jl6841unYDU7S+eB60eTXv7WsrAua+FAVK9IaII5DXOnv8OFJRCpYebh2945hnoOTA/bTI12dRiRhU+t1hbGppfhffCzE/22XKrgOzwiSz2Tu89YTJt+KXS4Ch3J082zqp47osXJxhUIcwGrDvxEQMD1JauK4YOfn0hxCVJPDhSSsoSFk2KomzHPIVCkd0kKa/EAMBKjJvV0VE8hKDUV9fTDpztkzH0IgLwF444gnf1HZGuj3gFPBJjNWoYUER6+mYdZPELI82iGzU5VlXVUW90gHnIAEQFhbNRzcCYbxo4UNk+gSSEcZpy3BfqJBo3J4SVYgXk7EBDdhyR0NngmeF362GEcgJGX5+MdzY9rN4aQWHG3LSTA9apKDQSk4zcveEIEhFAI7NRvn+yAGniM8ooEEDiv1xAttrpCitUKi6SWF0KgwoIlcjHiTzctmg8rmtCeEkIGha7KhT+RYdU6CHSjn3L5mzgenf8zG4xrHdeEIoO+w7ObJVPhzgratrpYRCSEQJ4eMj6XLnlkit5gh0Ftfkxko/NiTWWDOCABRASEUNhsPBsdEUUDMR8ddrV0b40SkcgI8AZvzdEuzn0fNvr0/zB72f9pJ3QMrFA44Zj+emSWdWcEo+sydg4wGciWhWhHBMQgs2syh+sIRFazqcxcV9tIP32+M+w7m9Gu3LWvOeDAbmiGne+toS4yBDKSwNyd8++eyPHe8KjMV8TDN2mjcsQEEwKGCIgBKikp6Qn6jb8xmqA/eWFN2NeGIH9djXXkzVE/SDOMxiovrpFmrBAEo6XOuWMCxSgxwdOJiieEuo0qasUFoRVmJdIQAXEhOT3e9H0DgJ12biyjqjAP/YHRVuk5SZSERbjMuqy6n4b6JsrbXB72AhmJYL7GwDE5dDxmqhvPJ+Ifk7o/NNthbfRwLm+hjgiICykZCEvt/5Jl9hdgSOHXH2yhQPxGMEFTX9d+6XqFQpu+NxRWNGNJWQ1NYESnnj6MsnskO2aqRzLcVKcyZ7ESECFwiIC40KU7wnToyVH+hluxVKF9+9GfqbJUB6gLV3Dt3fsZC0yRUVjV6+cvdkltL0ThmdnKwz533sEUG6tHZAUin4cKXGlT/xTurrTuEvyICIgLOb1TA1aokKFxaoxLxxrUgfqdYIEQ+Cy25PSw9uyo4CaDcB8oEA60ptOe0h95btj+3XjSbGvfjxjUPepO9DAvbCGMCIgBOhody7Za9vkPrB5now+f/I2qyp3rV4cjmKjm6ERX8Log6n9EQJV+kMBSW9VAr9//A9128kK6asYCuvyQN+mKw96i6456j+b/+RNa9NwannfkzhtE/rtg/kSKjYtwF4R0OcbADqSXEBhEQExsemVCfuum4PkDrqkrQ1tRUksLHv8ljGuBdg5UhzVBTBvEf22mgDQ7WPAj5cW19MAFS2jR82to+9piKt1TTZXldZyn9u6upI0/7qG3Hv6Jbj7hQ/ri9Y28VK1rPsOz6aU8kOEHdHN8jlQQ+LG+tinsm4xDGREQAxSk3F56eGogS5V56q8WbOKMHba4qcAihPb2dSXNNwp+JT07ka557gg67JQhPCKOo+M2oWKiKyf8H9r+8yrp+TtW0rzTFlLp3uYdyY7VJWFU8Qpcdu9UsIAb8ijWh3fnjQkdRwTEAM0uGJ4asLkgBrpzT4dYmH/GYh7+Gn4gxlAD2TFDsvlm2r2ptPk2we8grho8DtAicoLd+Mz9Uzbaub6UbjnxQ14cyjSiEJ59p/WmNCVGgczrnY9Wx7KiGv1W8DsiIC5g1m5mt2RHc0ygwPlRmAt2VNCXb28MS/e6OL+KDZTrpaNmu2d7Ja9UKASOLb8VcQRk5BurhgNdSdG1b+Wf8GqCD/1lKRXuqnSsYY+8PvH4AXoFQzfniAx0IYYHgvsU/I8IiAsw6jk9jVnWln3+hAs+RETZ2ZfvXMVt2eHlYuvlQuG1menE96T+orZXugdNBq7HC/4C+WTh07+bH1qtWJvPAMK+V1VWePVAw5Di2Y2f1ocaG0NsLVo/ooXUTmV7ayLb0epEREBcQKHKUh6IznjWvf6Fz28oyUtKRDAKLGxQl7p9bUnLazYSLm+rs7lE8C/Io7s2lvEz8CqFDWHH8/j1qzza8MNefo/H071fuuMkkWtg7VQq8bAChgiIBXSkm25+oMGvwAhv+mkv/Wfuco/j90MJGB7M7i3hGEPNR/jYDStUsK3MuTFEcJe2GKGE0DLlymuqqcKwV+c+d8eHAjD+PNjD5r3Rd9yJevP87SupqUFPlsUqmQNH57AoRSq2mBh+vkJgEAGxkN0jxbopsBhlF7O4v/1oa1jU3HdvLnPvpWGb+lO4KzQC2PGoJHWR6JPJ21RGy97cSM/ftpLuO/dTunbWe3TFYW/SlVPfpquOWEBXHvY2/UO9v/3Uj+mp61fQj1im1+phhQjjDu/dboHj5kabfjaokWsvxE4TZvW3HhpZqHusLK2zbhX8hAiICyhQmCAHglYpM+wARmM9ee0KWrdqT9A8IF9Aumz8YY/xofk+cxM6LTt7iVsY/+L8avrijY10+ykL6eYTP6Tnbv2GRWT99wVUuLOSqssb2AtpVGlfX9dIFcW1tGNdMX3zwVb61xVf0q/Ld1tP2+lACEYf0pNiY3XR9TafarG3UW11Pe3aUOIQFIgRi4n1CxEC7rOyTAQkUIiAuGLXS4EGGxRuNgTqadx7zhIq2FYRsrVf8OPnOznCqzurg00wxJ0JZmE/dcMKunrmAu44hseE9DW7/JG2pnei/2pvBbV6Fm912OAxuTT20F6WM4cGXXqmUI+BGY4mQ++xs7CvW4V+EG1cu/VL5zXu23umcAGjmsUDCRwiIK7YnB5IsOEaYhPG6BM9dNFnVFVeF3KeCAzv+u/30M51pWxs3dovdcmozXcGuL73//sbXTfrfVr50Tbj+mwOMca/LZrd3JCYHE+XPH5oSDcn/vXBQygurn1eCMAdbVdeFr837i8pNS5i+0FQhqpVWQrlClk4IwLiAgpRakYCpWYGdjKhJ/gnVT4vzKui209daLRVW4/qPOB1vPefX1VhbCLMAHF3bbiHYAsIDCFCejz816W04LGfjYljhmg4/rp+o3Xi4m2UkBRr3RwyIJ/2GJBOIw7u7jD83mRX9jrsxhweeGTGl5LT4t05kxEB7hEDJKQZKzCIgFiIT4zluSAoWt4USn/CRs6GWlMTt9/fdtJHXNhhsDsb00ivX2X0f3ho9MAtYKZ0MMGs+PvP/5TWfpuvN6Bpyt4+0TDBdxBvChGTMU8nVIEHOOfvY3VQxHaAJKlFFAGXtIlPigtpb6sjoCyhj0sWlgoMwS3pYQBc3j7DsoKvHgZcS1S/jetArQkdwPmd3CeCa0JE0xuP/4Aa6hsdBtoTCUlYrTB4PHjhp5S/pdwxA761a2sL87FjguealYYghSDoy+g7PJtmXTDKEEsPTYpW1LF1ykN0bR5Ny0rUyhKhIF0Kd1WEdIUgXBEBsWJDwVQC0oklSosI2vR1JNH5Z35C3y/Zbj0sKJiG6dX7fqDa6kZtrDx4HwAd1Rk5idbNAQHX8vJdq2jLr0XGdfphpT0j7TEu6blbVlJ1ReiG3cc9T//TcOo9JFMJSowj37QKe7h6AIFJWlaCozkr8tD3tWd7hSenWegAIiAWUI56DsrUNf6OGqMOYHoioKqslv4z9yv64o0N7I4H0xXHNbzz2M+0/O1NZEffRyuFUO+yU5cegZ+MiSRAbKevFmx2PCZ/JIvjFOpNUV4VD/v1x3kDAZ5NSno8XfnfaZSUFq/DlHhxrRil5jqPhAOIRjBIp727ZGXCQCAC4gYMbUSHsRdlMaDopgnnhxduX0XP3/6tscZDYK8Op4eRgefxwX9/59/DL7b6s4b90h5c4IGg1tchjnkb19VOnOeyc9DC1kQzFEjvkki3vXk0d4bH8PwQu1ZzXLh6ccBEvLBN7WrA3JcGfZMQegzj9Up5whTkXfQpdvbcpEhEBMQNialx3BEcaoYDBQHriNx1xiKqLKnzq9F0Bb+DpXcf+/sy+vTldV6JlZlWSLdBY3O8aEvpGPW1jfT56xsCNsCAb1ndAgYOhDqo7CCK9M2vHkn9R2fztccpIYF3guYpjCpEZ7v5GNmOGh/wb1JKcPusgg1utTgvNAajRBo2uzfWIYpAciD89TVHvkvVyoiGUsXMYZNtepjpKVfuywsDxcQ6m7s6gs4KNp6p/fKd39HODSWObW3BFV5lmfqP6kI3vDzTutuvoNa8Y30p3XbyR440CUQuRo01NSuRHvr8ROuukKWuppHX/kBQUHgWZq0bgyCKlRhu/qWQflq6gy6YP4lHHMLLXPrKenp5/nf8DAORjp0NykbXvql029uzKD4hdIdnhyPigbghTmWyuITQSxpH4VaFHobiJWXk7z9vCeVtdo5A8hWcGzN233r4R3rg/M9o50a9sqBXwmSDzuqZ3AgRHnDU7+3dWeH4GCijB/FsbAjunJaOgopFryGZPLIKa37AO8ErKS2Oeg5Ip0nHD6C/PTSFxcMkJSOBV5MMpcqSX7HZqaGuicuI1Jf9S+hZyU4GBhPufrCHonqLq4igMGz4cQ/dqmriT9/wDTc78a52dGCbw4N//mInXTPzXfr42TVGQdP7vS1vptAcfOyAgBdSnhxW2cDvA/lTfOoAnj9QuGvrR5rpfpCW+zJzk3X/VjjerJdgcmtjPe6v5f0LviMC4ga043ftm2bdHDLows4tWTy2HeG5Vy7cws1u/7lqOW35pbCZiHCMJ7t+4b25D+Lx87JdNO8Pi7i/o65Gj85hG2P30jjb8L82TufPn0hdeqS4NVL+JtCjvADuIzEFHcyRC+4xt0+qfth4boF/dEEH+dP0QIKQNaMKERA3wIhiKC/ntRDOcE4DD2uP4b519O3CbXT3mYvp7jMW0wf//Y1++yqPCrZWUFlhLZUX1fJqgdtWF9OXb22k+85bQo///Qva+nuR4zQsSl7YZrY1htDgHwQePGBmP8tRgSPR6PgNlEEw7w+d0JEM7hGRF7K6aeGPxOVtUXGCgOAl+BfpRHcDaubLlIF9ad4qJSbIdAGyUn5GG3StAvAIzEiznrDFGIeTd6JhwiKDN4bgjJvamy555FDrYQEDAo/O4LuUSJqtNe25fm8whXT/I/py4MJIB5Mmly/YxHnfUS+IFLgyYKMbXjqCBozOse4VOoB4IG6A8e0zNAvdDGEFDJ45S9yOkOWGgQf6b/NwF2j+8lU80OmKQnn46UPpwvmTrYcFFLTx9xiQ0Wxoqj9xTbODj+nfrj6lcGXOZWMps2uyDtMfYZh3hImhUl/2LyIgboDh6NY/nWJjUZMPnyRCQTGFgr0QV7HgctPS4Fo/ewLnchhW0iN3LrhnIp1+zf4UnxT8NMLcBoz4CoTBY+FVzx1Dksce1sdtp3SkkZadRFc9PV1PRLTknXAHWRzCUbC9wuv8LnhH8Et+mJCencgze8PKmYd3oC63u6qdO4ch62WUnOLiHaZgOIVDz8xPTk+gSbMH0V0fHEcHHd1fi2x7TuxHjjp7hNO4+3AJjss279HlhUlnp84d3+5ot+EK7r9r71S67PFDKTFFD/F1rTSEM7gF5JOCreW+ZBOhFURAWgG13HArQDDmp1w5nub+bxpPJkPNy4ZaulNPWjW2piHlIZ34gL4UrpHbaOLxA+neRcfT2bcfpDyQzh+d1HefLF7Dvr21Sv1M8SUM2UaN2/DE1AuCiLU2zr5tAg3dr1vzL0Y4eMYjDu5BM8/ah8Kq4uQle3ZIQEV/I53orTD/zMW08ZdC7k8IB0yxm/v0dBo6visPW9y9qYxWLd5OqxZuZRfeeTAZnRlGmbIbJoN1A6KBoIjJtO/UPrTfjL7Ue0gWpWYlhFxzTtHuSrr5xI+otrqBVcBTbtbCqJtmuKPYhsl18bTPgd1ozJSeNGBUDqUprxOVBnMxqc7yrDob5Jv/XbeCvlu0XQ+XNgU2jGEPq28a3fn+cWFXKQxlREBa4Z+XfMHzJIIx58AfsCaof25+9SiunZsGkOd/KKOJNTMQnmTvzioqyqvkYb8NylhAFDBrOTUjkWv0ub1TqdfgTOreP51HapmCEooGFbn3gyd/44jBrpVmUx/1Jdv4f3gX/fbJpqH7d6NRE3vQoH1zKDHZuZwre1qhd4tBB+mAhczm/eFjHvrdmjCHC3jG8Ykx9PCyk0J6tclwQwSkFV6c9y0tfXWDdXPIM+/dY6j7gPQWBh9PGo+7LS/CHHXU1nGhAu7pzYd/poXPrCbnqkE6hEdsbAxl90yh/ZUXNeOMYTzrGkBQA9EBHykgTXdvKqd5p39M9bWBn/UfaFAUcP0PLj2Roxdby4bgG9IH4gEUoK6908Iqo+FSYRQRhsXddfN+L0QBx3hzXKiAe8XyrqdfPR6f+DPa8w88sh/Ne+8YuuOdY2jOZeMoI0eLBxDxaB2kIfqCjr1oVES5ZQj3E85CGGqIgHgAmQzNOUyYlB/dZGPTneZRBgRh2h+G0SWPTKETLh3LXtj58ydRTq9UI1pxRNnBoIA0nXX+SBo5oTt/joQ0RKRtwX+IgLRCbp80Y6xOGGE0U0UjMHj7TutDx1wwijtMTWPnzhsTvAP9f3+68QC9bnoYYxaJKiUgkh/8hwiIB5DHcnqmEGY/hJM5bmhspLqqhqgVEZNwaoILZdAUiBU6z7jpQO5e4mwVxgGzqivqwt6LCiVEQDyAWkp6dhKld0nSayWECRx5tINrgwiClXGH96Zx03obfUfhUx4cGJddurfGukfoACIgrYDCktsrlWtc4aAhXEZinGtlCIK/wIz8vz1wCI9iMyUkHMqEiXnNJQWhv0RxOCEC0gpw17v2w7ogNt1DHQ6oiy4vrJGRJoJfMQdnzL5kDMfLwnyjcEIPMCEqKxIPxJ+IgLSKnbr3z9Btv9ZdoYoqJEX5VWF0wUK4gH6lybMH0n4zdIDJcMpi2juP4QmS0d4/6E9EQFoBtS50pHOGC6Ma1x6ELAmj6xXCi+P/OkYvhczVeuve0AXlGH0gMgrLf4iAtEGXnqn6TRhVWnZvLgur9mkhfOAJhgMz6OQr9+X+Nh07zXpU6IE6IF5le6ujYn2XYCEC0grIcKkZeknTcKi1aM/cRnlKQMJJ8ITw49CTBlNKWnxYiIcrmAeCGHDSjOUfREDaICVdC0g4zQZBhNq6mkbrZkHwCxCN5LQEXi8lrBREeR71dY1UUVxr3SP4iAhIq9gp2Vj3ImyKiapZwUWvlpg/gpeYtfH21MoRpXnyiYOo9+BMLhzhoCNml01xfrWUDT8hAtIKaLZKSo6j1MzEMPI/NHDTpR1LcBUFvEflwuwDwK6G+ib2VrGeCv42qBo6jvNGTHDMwccN0MsdtH14p2OKnIxS9B8Szt0L7vzTItrya5EuVGGSWpf/+3AaPbmndbMQBUAgMMwWI6UaG5t4gShMoNuxrlS9imnXplIq2l1FZXtrqbqiluprdeQCZO+E5FjqOTCT/nTj/rx2Slt9f6io/GPa20p4nOcIVXAruLzZF4+lYy8c2ea9CW0jAtIGKIwv3/UdLX1tvd4QBqllRlGdffEYKSQRDtdp7M41XipKa2nNinxeCG3Lb0VUqT4jMkFdre4T46Pwj/oeTD6HtTLWULHbjFD4an98QizNe/9Yyuqa1Goewm//9+oVtGrRVj5nOFiTqacN5QCRQseRJqw2QNExa2Kei1HoYJb137/Oa7XgC+GLs89CewA/Ld1J/zf/e7rzj4vo6hkL6N9XL6cV722m3crTKCuqpboaI7imXTdfocmJm7HwHs1VhEmBunqOfXjVK8F586Efqa3eP+SxUZN7ONfxCnXU7RTvqbJuFXxEBKQtVIbrNSQzPKpWBjAAW1XtE2EbwuiyBS/A88SaFutW7aEnr/mKrp65gB6/bBkteWkNbf29iA2/60NnQWAvw7nZmzwBYVn3bT411rc+mg/n6jssy7o5ZIEcVpagf1DwByIgbYAaFtaWwJrh3hS8zsa8xsYGu7PfRgh7zOe46LnVNFd5Gfeft4S+/Xgb1VU3steJfOqcIIc17L0TCnfw92yI6mznV+vYKbc34sX5/nvBprZKgo36CxEQL8BIrAT1wtDFcEAbGzut/bZA1sWIENCPcfupC+mNh36i+hqMlCJnE5QpFh0QDSvwXOITY7ni1BoQrpSMBOq7TxbPTA+HVlMMcRf8Q+u5Q+ACik7ppFTMBwmD0sFgTfMY7gcRwh8Mr7337E9ox7oSPWSWR3IEeGqryuq9h2ZxGHdvGDKua1iIBwRPPBD/IQLSBshwCF/NAuKv6l0QaGpqou1rimjXxlLD6AjhCCowu9Uz3L4W4qEHSXSkecobzCaxA4/s53XneN8R2WGRz5CetdWNEg/LT4iAeAGarlIzEwJaaP2OYQQ+enq1DnonhCV4hiV7awxvw+gQDzD4zdSMeDro6P7GCoStA8Hpbq6bE+Ig+eprG6hc1gXxCyIgXoB+hJyeqVywwsFNZ+x6vYbVX+fzbGMhfElMjg2aaUauQS195ME9vW6+Ahm5yUpsAusZ+QPcEbyqwl2V4oX4AREQL4Br3mNAupH7rHtDFwheWWEN7dpQYnSsC+EGHlvXPnqUE+O9TW833Dxm9J9N/9Mwr5uvQCIPMtETEUMfOxVgzRyhw4iAeAFML9ZA4BEv4VA+TIyhOe8+8SsF1PIIAQP2uEvPFDr42AHcF4fMyNP+AvA4kV1i42Jo1CE9aNC43HaNOlSaY4hH6FdUIHS7N8qSB/6gHVkkuumGNt5wrMXbde1QCF9gmM+86UBeHZP7s2yY5+HfvGgKEuJmHXHG8OY720UAlM3PIO0KtpdJ36AfEAHxAvSB5PZKo/jEuDBx0TVsY9TlxiXEWncJYQbmIV31zHQaPbmH0Ren++P8lRs5q6gTjjy4Bw07oFu7PRynnvlX2PyN4ZRTwbaKdt+j0BIREC9JTo/nkVjIc2GV71SJqSiWESfhDoxdVtdkuuxfh9MxF46muPhYNvhGHaFDxtAUovjEGLrovkncjNVeMFeF42yFtn4waIbG2uiNMrikw7Q/p0QxKMAgDMqICzYq2CG1rUjAbHI57i+jaP6i4yhT5UfX5+rrM4bRhxhNmj2IZ5X7AoI6NjVgoop1T+iBCMQ1FfU8OtHfTYHRhghIO8jqlsy1F18LameA+cr5W8qpugIrFEphiQQwNyMzJ5lufetoOumKfXWFBpnScEe8zZ/seRivQeNy6LSrx/vUL4BstXdnpfGh+b5QBd6SHt7e/vsVnIiAtAPU+OyN9rApJIy6ViwsVLpXlvGMNFLSE+ioc0bQLW8eRSMO6kaxCc75IqYweIL1xvA8kpXX8acbDuBmMV/g2fKbS8MmFhY3/TXpCYVCxxABaQcYTgnCzw7bqXBXlaNw19e1HqJbCA/M59l7SBZd+eQ0uvqZadSH41fFGENwjY52HOfyFy+IR4zagMmCc9V3+wzL8tn4wyBv/qUwbMqFXakHQv1gJUZf71nQiIB4CWpZXbqn6pIXRpjNG1grAqDj8P/uXtXsGCG8MSMuDxyTSze8ciTd9tbRNGXOYJ7B3mR3dmzD0EM0TLK6J9Ntb8+iPsMhHr5bUvR9bFH5KxxiYQE7ojQ06Y5/V8JlEEAoIUvaegkKx5qV+fTghZ+FVSbjGmiMHp552ROHUXF+Nd0y5yN64NMTKCHJtyYLIfRBscbCUzs3lFLe5jIetlpVXsfbUzMSqN+ILrySIJrBOgLOV5xfRVcf8S7ntbAoG9BKdZ1zn5pGww/EkGUb1VY3UN6Wctq5vkS9Snk1x/PvnujzoIJoQQTES1A7yd9SRjfO/oBrceGSalxW1D9JKXF0z6LZtPLDrfTinato3oJjqPuAdFkvJMJBxcddxziKfUe8DhOcZ/13e+jec5aEjYCYZWLKiYMoJTORNv6wh6Md19Y0GH1IeqLm/IXHc7O1lBHPSBOWl6BwpHdJotjY8FiZ0ASXiuxfU9VAa1cWsIDgBvKUGJr2Q4ItRi7uxAP4QzwAzrN1dRFnsnApFmaZ+PKtTbT4+bW08Ze9ujnLUbB1eagqq0Uvkvk1wQ0iIF6CggJ3FiOxUCPxU/kLHqpsfPfJNtq5oYSvf4OqdZnccdrHVKdceHFGhfaCPPP7inz2yjG/Iiwwyi4u197UxHqh8765FLA+oKq8Hm00jq8JLREBaQcwvF17pYZXQEXSFSsI3i/Ldis3HWto29gbwd9d3EZeSq/d/4PfaqXBAE2KK97bIpPBOhkstbv++wJjsIZ1b4jCImG8dXlvpaqsPqzKRGcgAtIOkNF6DMoIm3LSDDtqVLU8YgZDGLeuLuZOw9++yuN5Il+8sZE+/N/v/D4cgJi//c+f6N9zl1NlaV3YjADqTPwttMgrP3+xi5eIRfr7+fSdTsmeausmwYIISDtBWPdwXYjG0Z7LtSo7LX9nI23+VbdfY7jn24/+RD98uiMsDAGuceCoHPpdCeA1R75Lq1fmWw8RLGzBs/YjmBH/7cfbrJvDHi4eMYiXJQLSFiIg7QAZqxsW94Hba90Z4uB6TXddy4derVDPxrUZN2SjJ/7xJW1bXeT32n05NhAAACAASURBVKr/sdPJV+5LsfE27gB97NIv6OW7Vhl9OdZjoxt4B5gH9PBfl6pKwya/VYDggWz5pdCwuJEF+nQw5D30y0HnIgLSTrK6p3DNK5xHZ2gRsfF4902/7MUWtgGYoQt+XLoz5Nt+cX25vVPpuhePoPTsRGqoa6JP/28d3X3mYlr3XUGrbdvRBAwghqc+ec1X3CnMi1L5AYjQ0tfWU2lhDT5Yd4c1yDbIX8X5RnwvwSP+yU1RAgwS5lNgyc/w80GsIJhcI5XtgQEwjK1Nz1T+5oMtfqulBhIMUe3RP4P+/vhhLOp4LjuUKN53zhJ657Gfub8nmmuQuHd4CfeetYQjMmM5gonHDfDLvAZENHjrkZ9031MIVzZwaXx5LpdobvMUu4s9dHVfpQU1IV+R6mxEQNpJclq8MlbWrZEBFxxldPZsr6CfPtvp6FC3hnwIJSAc/Udk0/UvzWTR0ytkEC18ejVdf+z7tOEHeFi6xhxtwPg9e/NKno1uV49w1MQe1kN8ZvuaYu48156rdW/nYdp7V+FwJwJZ3VLUK0l745bd2nu1U1lRjcSNawMRkHZhp0T2QMJnJronzCYe3IZ5K+Y9ocB99up6Ns4oSP+6Ypmq2ZeE7Egn1CT77pNNt701ixf+gkHA0qxFeVV0/7lL6JmbvqGyvdG3qNYLd3xLX7+/hdMCz3HaH4f5RUg5ntr871W6d575aCYQ8CT4pfMyixreqTddeqTQ6Mk96ciz9qHz7jqYrnluBt27+ASeZT7p+EH8fU9lubKsTo/w83SAIKFM2gsK443Hf0B7d1RGbMaCgCBK682vH0W9BmfSrSd9xLVNBOmLT9Ir4YUi6MLJ31pGD1201OgAbXK0ZyckxNI5d06gsYf2pvhE3IP125HFq/d9T0teXMej61DhGaWM6GWPH2Y9rN2gEvHLl7vp0Ys/58+B9kCaPyd8cPkx/mjjik6KqjikZSVSthKMvsOzaMi+XWngmJwWi26ZTW74+/nrG+ilu1Y1O6WJeV83vXIU9R2R5Zdmv0hEBMQHHvnb5/Tb8t0sIJGYerrw2Cm3dxrd8e4xNO/0RTzZsPuADLr97VnWw0MKNLtVV9bTTUrksUoeBN+ol/Kz6tonjZeF7TEwnT9HkpCY9/Pvfyyn75dsbzY349oXjqDB43J8Fn+cB3kC37/7jMU8qqupEZ6N9ciOw5eIEysPh9/D4Kvfghiag1dyeqVygNCxh/Wi4ft3o5RMZ9BD12v1dLvwxFCGTSFseR/6+399aArtO7W3CIgHOs8HDVNQy0VzSRgPwmobNkQ2Ks6rol9VbTNd1exQwPI2lXGTSCjXObg2mhbP3hK8JzRtwOww6s/eXRV0x2kL6YkrvqTyIt2sFcK34zUQi4a6Rnriyi9ZPCCkLJvqnpEOA0Z1afM+udPdTRMXtpUUVHH0gpfvXMUj91iYWx7qNbgubdx1sEf+zNaIr5o/4HNXVYk5YGZfOmXueLryP9M4/PzDX8yhuz88js685UAad3jvZuJhntubcEOZucme08T4ctFuGYnVGuKBtBMUph8/3UFPqFoex9GJVCVBGVZ/EP8ru3sK94Hgc3JaAt3yxlHUpWdqmwW0MzFroE9eu0IHkHRsM/cTJaXG0xFnDqfDTh3CxiSU76c1cF8Iqf6/676m9d/vcSgi/mhjGkMTjulPE48fSIPG5lBCUlyzdIDRbmqwU3lxLZ+nKK+Sw7/nby2nfPV3z/ZyKiuqZS8AuQLShK97azn4p8y0xQ+bF4YzqbfxCbEqjyWzx9utXxovkNV7SCZP2s3Iad7RrZug8LljDwtpVrqnmq6e+a7HWfT4iZln7UOn/GO8dZdgIALSTpBcKFhoIjHKXkTC5dzxxq5jyhmWYNLxA+iceQc3Oz5UwfN648EfadHza7WR4LkuRu3UuLfElHg67er9aL/pfZRgohO+Y8YpmOCesIbF/D8vptqqRuK5PGybzXvQD8602xhksP8R/dSrD/drbfu9mDb/Wkjb15VQhRIQBzDS+GMMGMF5HXOf8Nl5JNPs18zDkG+MIe+4rLiEGBZteIi5fdNoyLhcGrp/N/aOMLrRBN8zRSOQzwJx1K449C2O5+XWDKqfPvDIfnTRfZOtewQDERAfQMb7+6Q3qK4OkTwjN/lMEeFCbNT8ADqh7108mzstwwE0t6ApDqPJYMhcs7xpqHBzaVkJdPzfxtDU04dq4xdA4+UPcI1fv7eFXpi3iuprjBn4LB7OY0zhcL0VFgXUukk39QAtrk7Dzacyz2fud8FxOhyE5iZjg2sstZg4G/UalEXDD+pKIyb0pD5DM3gBK+QfiIl5zs7sX7hqxgL2RNw13eGehh3Qja56erp1l2AgAuIj/5j6NpUrt95dxotkTOMy+fhBdPYdE5oZplAGuXzjT3vpv1cvp+K8am6GAXz5LoYSH3L7pNPkEwbRtD8M49E9nhZl6ixwPY3KUD99w9f07cKtDr1g7fA2O7oIjdNjcOx14Pp80XDFxt6u+0rMvJCUHE/d+qdT332yqO+wLG56wvBZzLVITotzpC8E2TQ3oSLOt8z5kCNSu7135Tz1H5FDN74y07pLMBAB8RE0YeVtLdMtIlEEF3v1D9qm5388m+ITwmscRv62cnry6q9o25oSHkUEWtTSjc9ZXZNp5lkjaP8ZfZRBTEVp6XTDh+ta/0MB3wOixZotVryv2ZHtw3FbbOydTV78Twx+w8ZDuBE2Bv1F3ZVg9B/ZhfqPyuY+C9cmKD4NtxR2fnq1BVZSxNo47qJQQyy79Uunee8dY90lGIiA+MhdZyymLT8X8tDCaIONizIQ1744gwaPyw15I+GK2XTzv+tW0KqF2xw1Yt5nvDVvh2vMOFr9f/CxA+mES8bwgAKA0V7BBAYOTXGv3PMdff76RmMyq75gb7Mg35dxLHeR2E0Db/YJ6d/BvWHlzbjEGOo7PJtGTuzBk/H67ZPd7L5N77szm6A6yuOXL6OfljqjLrgCrzOjSyI98NmJ1l2CgQiIj/zz0i8440UrMDj7TOhO/3hymnVXWAAh+W7xNnr6xm/0olQwhnZzfJEhknaXv2xUbdRjQAZNPW0oTZo9kNvyYUQDaUB16bTz8qsL/vUrle2tMpqP9G+2VXpt6KOw6wAvLDrYRujS0veLT+jY7jcim4bu15WGju9KXfumcV9FUmqc4x7xe2FUT/CaZ276mr5asNltOuKeE5Nj6Z9fnxxWlaRgIgLiI6/M/56WvLyuWQ02WnCUJfXm/iUnUEZOYlgWMIjG9rUl9Oyt39D21SXY4tzn8lgdNXeX+87KTaZxU3vTuMN70YgJPSg2Tnck+6Pz3cxTGFr74+c7ackLa2nDjzqmF+8zrqXFNWK/3sXXYPZTmO8RTLFb33Tq1l8PlcVkSgSjzOmdSglJCPDmFAlTPCOd1+7/nhY9t9a6WaPuH57Y/I+Po+xu2vMUmiMC4gMojEteWsfhIti2RGEKamNJygOZyp5IR41mZ4Hsj2CRz928kn74bAeHhTcfqNvHatymwwNQeQH9QZOOH0jjp/dhA52apSe2mcbbxFVcrEJjGvu66kaO4fXrl7vo4+fWUElBNf8mH2lohxXOg/hr/B7itaVmJVJGdhL1GpLBzYyY/9FdiQVGP5ngGnCrgfSgQp2Fz6zmYd7u0I/HRtc+P4MGcVOt9QhBBMQH0F766/Ld3IwVqgEGg8Wcy8fRrPNGWjeHJb+tyOOFqdDXoNvEzfp8S7Rt0f0QbLjZCNuUgdYh5ved1pvGHNJLGfBMSkyOs3y7OWWFtbThhwL6bvF2XmK4uqJed/Dj/MhfhoC4K6ls1CACygPK7pFMlz56qPIo0jiWWRy8ohjtfYBoFgpPLHtrIz13y0rrZobTVr3OunUCN1lK+rVEBMQHUCDzt5TRTbM/RAqSc9JW9MB3rCqz4w7rTRc/MiVsPRATlAIYbUTtfevRn/WaKBAHY58nHLdtugCmj8BvISgxlJwaTwnJsXr+Q3wsiw5ECp4PJrHVVGJNd90vwelo+UFPv28eiuGmCYlxPNwU8crE0DnBJMveQ7OsmxkdVWInPX7FF0a6N99vCsiRZ42gk1RFKZSGcocK4TUGM0RAAc3unso1S5sO4BO1bF1dHPJDmWFkXetJZtONuYkDMJbXUeHuSirKr6L9Z/bl6LXG0Y7vucM8D44yz8sYExbRQV9eUqvOXUV5qtKxY30x7dxQwu/RVFVVVstzOniuiT6J85wu12jFNGUwaugEv+nVI7mDX8TDCZ7rx8+uafbsm2FHqJ54isFESA+HIKV3bSwV8fCAeCAd4JojFygjUO0o9NGGWd++d9HxlN2j82NjcVMNLsimRZ6HviqvAutXNDZoY16hjHnRrkoOR4OFlmDI9+yooNK9ek5FM2zGPYbos8XytMmpcXT9yzM5ynCwhxaHMniWC5/+nQchoA/DnYeM/IJlnW87+SPCaDW7u5YElY96D86gW944WsTZDSIgHeDesz+hjT8VBiysdajDsyRUwbz8icM5tHZnGjDU4LH64E5VW8zfXEa7lTAUKqFASHcIBwQEQtKAxZWa9FwHx3e5pq8foI735AzpYe4PNdDHkZyeQDco8cjpmdqpaR9q4Hkhrtfc6W/zvJ27PzrOrYDgmWPdmKuOeAc64V5AVF5IzUikB5aeSHHx0d3a4A5JER9B5kPmjGr9tWlzW7Ct3Nmm0klAGB7521ION/7JS2vpt+V5yrtAFNkaqiqvp9rqej3fg5VBCw5eHPbc9FwMITEfqRYW/R72x/oKJvybZA7LJR6Ge+MrR3IEWxGP5iB9flm2ixAsG+GGWluSOSkljuLjY8mIJd8CCA/yVn0tAlVGcVn3gPtUE9oEGQurn+ngfNa90YG+b5uq6Vd1unuPkOA9BmXAd+DPLAQsEqZY6G1OoWjluRm34hAKx2dTPZrvD7SY4Px8rTYdi2rfqX0MzyMl4L8djtRWN9Db//yJn1OtEg8sTevO+JtDnhHvrDVQyYCAOB684EAEpAPk9klzmzGjCdz/3p0V1s1BB+3ZCLvhrqkCsA64GHtX44/vxOAVq9fVhrXmcB5xMTxyKiUtgQaMzqVDTxlM59wxgY46dyQlpuo1NbDWhuM3OGaU/wSFhcN4j+uJS8SyvAfzqLfYeExc9NMPRRhY/4WXNG5ECHo7VZbUeqws4BmnZSc1yxtWnALi4SRRjPSB+AiS7YdPd9K/Ll9m3RVVoPNx+IE9aO5TnRvSBALyxRsb6eW7VmmPwyVXO0XDXNui+YQ+hOxAJzRW7kPTUE/lycC7RM0UI5zwwkxtM44WqCyto62/FdLyBVvohyU7qKG+gX9IR6s1PCD8Jv+G8SUvcDVi/DX1T1JaHM06bxRPVszsCmPnwdIJzB2nLqRta0sIC74hrS7/9+EcLcBdUx+e04MXfEZrVxW0yDcA30dyY2lnBJAUmiMC4iPIbJt+LqS7z1ysa4pRmoo65HUXbo/vTJCNN/+8Vz2PJS28QjwfeBLD9u/GK9917ZNOOb1SeORYF/UZ0WURaVZ/zRpnyn1oElOEcAyGACPUyMYf9/Cgim1riqlKbXN8i1XEeLU8FW+GB8Tvjd/ECCusRYFFrg44sh+vVQLcXYugQSUC3sdT169wSWsbnXfXwTRhVn+3Q3GR3s/c8DV9o76HEXvuQJpf8/wMGrJvrnVX1CMC4iNItb07Kui6We8aAtIyc0YDuPeufdPprg+Ote4KOuWFtTyiBpP0mudqO3Xrm8Fhuc1aKHsIxjEd7b/RRcgZR6quuoHWrMynVYu208ZfCqmqtJZqqhqosc68LkOUkG/Qga+IT4rjCYfwfMZM6UmHzhms+9iMixThaBs8dyyzgGHZ8P8wxAPJh9UmsXSxO7D/7Ud/oo+eWY2ZnJZ8o/M3HtFF906iA4/qJ8/BgghIB0At8/JD3+Kgd9EKanVZ3ZLpvsWzrbuCDpZonTv9Hf5rhu8AKPNo575n4XHsaQTDCJghSNB5D8NWX9dIJQU1yriVU1lhDce8wrVk5iTxmhMQC4QewSp+RsU5KNcZSWxXnt/tpy50fDYt29HnYSb5vo7trsD8Ia7dK4hrZ3d+x4Qfgcrjcy4dR0edO8JRSRA00oneAZLTEvQY/A7WYMMau67pdTYwBDC+3BRl3akuj+eA1LtvoggEEFYIAHd+J8RwePRegzNo7KG96JATB9O0Pw6jKcrLGHtYL+5zwXBSdIwjL5nfFbwHAv3kdSsc6eYqBKV7apwfLOD4jNwkjhzgDpwGZ8TEU6ElIiAdwk69BmaQnVdes+6LEtR9JyR3fjZiY60ML5ZXtVYj8bG+roGNTGcYZtffxHt8dL5c9zneCu0Az3fdqgJemta6wBvyRGV5XbNtVjK7JPHfFhUP0uIB0Czm/ojopvNLflhjoz7DsxwdoFGJKlOpmYnWrZ0COp7TshNbFnM7mpHsVFPRYN0jRAJKNBa/sFavyaI/OlEbqkpbFxDM6OevtMg4+lx47dle3imVj1BHBKRD2HnoJ2a8RiNcWNULzXihAMp3t35pfF2uZR3vEW5m785KbuoSIgfM0cDIt9+/yuO+phbY0VdZb93qAPkBI/SAR4FQ50AMNYTZF5ojAtIBkOF6DMzgKko0miVzpMvgfXOtrUadAoxJr0GZbp8FvJNdm0pC4joF/4E+pkXPrTYqBi1HUWEbJhJ6xsYCoqPxtviygV50DHHVWp4/uhEB6SCZXZN5MR8PdZeIhdvvY9DpSzRqYo/QqNmra+ozLNPwjFyuR9sW2rWhzHMtUwhLyotq6PcVecanls8WVZyaqnqqx0qTHohP1GawrbxRXowZ7SGQz0MIEZAOgMyECJ3xcdGXjChHKG/9R+dQ9wHpITESDdfTHR4hsOgHQCdrGzZCCDOeuekbjn3lkaYmHtbt2Quxcxw1aI8ncTBHhCMwp9Cc6LN8fiZOZT7EKIo2w6T7Fex0+ClD2qy5BQtcB/pjktLiW1wTRudgKCaG8wqRAcL1r/22wLrZgs4HWLzLdW6QCfIJmrBi4z3nYXMPJqqGQkUplBAB6QDIfPBAMM7fQ+UlItG22cbxoUZOQvOV9YjOA88jI8dNvCh1kRVltVRdWe+xpimED3iGi55fw0OzXaMKuEXlBaw26QmsrYJwNu6awBhstqEJSzwQKyIgHQRDBzMxEQndyR7yX6SBworOyxMvHcczqUPtvrt0T2lhC/ga7ToIYqvGRgh5IBiYl4EZ5Jjp36Ky4ArvsnPYIU9ggAUExNNpDP2gYuXFCM0RAekgyHQ90e7uIfNFHnZ249OzE+nw04aY7khIgYi1ZowpE3SmAgzHFMIbCMbydzYTnmpb3qTebaOi3VUesyrOkds7lfvKPB2D3xQPpCUiIB0E/QA9B2fqntrW83LYYxYu9CfMuWwc9/94KnCdSZee2hg0w9gAD0TasTtGW0Y7kOC3EYPu89c2sFFH/mvrcvCdonwIiIfnbnfOH/KIDU1YrU9IjEZEQDqKylj99uni9HMjFLPsYeju2Cm9aNLsgSEpHiC3VxobhWbXZzyfkoJql41Ce4AhRiDI1V/nt93vEDBstPDp1VRRqheJ8vYa8NxR2XMHtiJas8c6oPE7uHehOSIgHQRGqseAdM5h3mbmcEPX8vTMCsz7QHhsdyNaQgFcF5qwrOpmfmqtM1VoHdTgX7vvB3rwws/opTu/o4b6zlgn3E4rF24jDuDpZQUGh1VX1LWy3geWJEClw/29mFsrS6X504oISAdBoerSM4Uj8/JyqBGLXlvhkkcP5ZXZQrkZKLt7ilvbgphlGPoZfKMX/iDNSvfW0KrF2/jZf/HGBrrh2A9o9TemNxL4NEW/1mevrKciVQng6oyXP4ky2lDXxB6Iu+vEfiw0Zq10WEHzZ42EM2lGRJu8YIGRWKnGinGRhqONWf2dfPxAGjmxh/WQkALXm9UVxsCNfbHZWUA8toULHsFkvQfOW8JBKeHlwRgX5VXQo3/7nF699we1P7DeCE6NWFRvPPiTHnllPaAVcFUI5d9aOH8M/cYQcI95Q90zZrOXFta0GKARzYiA+InMHIwjjzxQcOFZDRqbQ+feeTCLZSgDA4DowBglZnaymmDVSDRhBdDORSw/frqTdm8udyyUhWS1qfREsxCG01571Lu07rs97gMa+gE8R3g7dTV61nm7nqEdxr+RF37zJBCJyXGUkIhljT2cmL9m59FcHo6ISkLbGoQR6TkIae4+c4YjKGd4QTAwu/v6F2e2r9B2IjGxRF0xqsb0nsj4a0cncC0HxRO8g0c9ldXTszd/o4UDWdyua/WctMY/aN6575wl9L/rVvD3PHVY+wquA56OFoD2nls3YbUlbgnJba9WWbC9vP0/H8GIgPiJrNxkz7WXMMNRhGx6Zvdl/zpceyKtl60QwkY9+qW3NAbqJhpUTbQ4331YC8E9bz3yo/I07Mr7sK417xRo8w3WgYc38suyXc33d5CvFmzhJjP0fbT3nPgOxKOtWFYJSXGtXjByE0KiYMVIQSMC4idyeqdyzcRqs8IN8/pRjBKT4+nqZ2fwKLPwui9znRZLjZPdKqK9OyqlFukFsKVotlrx/hYjb7vPBDjOUcFo0v1Mj1+2jJ6/bSWVKLH2R8Vq6avr9FK/1h3eYNej8zCUt7VrSUyJc6k9Ncf8mu5Da74vmhEB8QPIXNnddCiEVvJnyOMoGOpvfEIMXf3MdOo7PCvsalwwdJgYZkcziuXS8TF/W3mL7UJLsAjXf65abkS7bel9WGEh4Td6sukXb2yk209bSBt/LDT2t3ECN8Dw/7Z8N235rYg7z304BT9rHoG3E0O4PT94eCD4DU9gV8keCWfiigiIH0DBwOzn1jJnqONaq0IhvfzfU6nPsCyOeRWOdOmRSnZcuovBcdQid1eG9DDkUABp9ePSnZS3sczI1e1IL5dDsYbGved8Qg/95TOqbmVlQI+o63jtgR/5ra81f/6aDRWHslYVKAkeSCvAWFaWSP+ZKyIgfqJLjxQWEl8zeWfCnpPxBjPN//HkVBq2X9ewFQ/YiMTUOEKDh/V5YF9rgfUEnUYlBVX0zI1fswfAnoVnu9sCPtau8xVruDrH7yvy6daTPqIV7232+nwoT3mby9Sr1LrLJ/ag6bKVLI2hvK2ibshce8QXbyoSEQHxA6jNpmUnUlJqvHVX6GMUKDT7pKTH002vzKR9Duoeds1WVjCxE1jb7fGsEAZD8AySbMnL66mmShlLm++VIlehgMEtLqimp67/Wr1WsEC1ZYQx5+S521ZiTSimjcM9YgpaW3OAMnLbjiyNpW1Ba+eJJkRA/ATGkWM2K9e6wiRv6eu0s1ikZiTQbW/Pot5Dw6/Pwwruy2yOsI62woic6jIfmlKiBKTXtjXF9PEzqw0F8N1wm5gG3Fza79uF2+iqGQvo1y93exzui+9s+rmQNv64l+weQpC0B5yvZE81h19xB+47PQtD8Vspv+ocddXuvx+tiID4CWTQrn3TrZtDFrOQxMTEUG7vNLr+pSN4bY9wbbaygsWuEGKmZU3RxtFcBffAQ3vzoZ+IKxYt0q5jQCpwSj0fw06PX76M/nnpF+xptJzdrcOWcGXG1nERw/mwrG19DQYDuD9ZBi8q1Tr1tQ2tL6EbZYiA+A079egPAfFvofM3ptdhlqGBo3Po+heP4GBy4e55NEPdSu8hmaQNoct2deNompGlbVuCPPHtwq20+ps8NvbmNn+C85nPo7HerryQXXTlYW/RV+9uNmJVaW9gu/KCvl+ynY29v4QM58aKlJ7KKIfAaQVcC8KhYC6IJxGKNkRA/AQyeU4v3ZEeqqDY6AIZwx/GT+9L1ynxQP+NvwppyGC30eCxXVuKono89TWNyghIUEVXkBaYof/MTd+wN6DzivUo/6DPy7/AnxHj6tmbV7I3gkCJ8IIWPrNGhx6xt3/ioDvMBcXY+3RzQuxFJ3rLPS4YWQkd+25OEZWIgPgRNGEhX4V23tKlYMafhtFF90227Isc0NfRf3QXjwV910YxAs2x0cfPrtbNSUFKF/N3MOETAvab8kZumfMRffn2Jp7JzhF3PXgL7cVmlEyIldvbUxWo9C4JrVaksAcVkt0b/TMqLBIQAfETKACpmQmsHp6zYOfB5UK9sIrgn287iE75x3iKjQvFK/UPqMX2wYAAm342JvxObduxriQkn1NngOTZ8OMeVeuHgDQZaWY9KjCY3gh+E90gtVUN9Nwt37Chx/Px12WYv1Nb2eB2DhB+HyP3klLjWv1N5KWdG0RATERA/IaNUjJCL6Q7CoZZqUrNSqQL75lIU04cFPJRdf0BRsUhPIW1Vokmmu1ri0NT6TsBJM97T/zqqPwESzxcwW/qx6R/3O/XgRPaWl8UKj4xlpJTEzxmC74e9crbUuZWhKKRyLciQQTzKEIJsxDGxMawd3T109Np/PQ+1sMimpR0d6Ju4xhPoiA6au7ydzbTGmNhqM5MEvy842Xd2UFYP9RJS/a2vqRxWhYWhms5AdWB2rFne0WbkX2jBREQP2G6wPEJsX7P/L7AzRDqhcKAuFDz3j2Weg7KaFEb9wYYFhRqXkjI5aW3h8LdegZrg7TETkW7Kjkyb7SDYdsLHv85JPJsoEFZKN3jOSIv8jIGlLQmoohIXFVez01toZ73g4EIiB+BC5zTCzGxOg9nkxUH8qCDjupHt7xxNDdftRiR5AFXYcCQ17K9NZSv3Pbta0scr7xNZby4DtaKMCeDNetrCJGyhQmS7q6lURmC+lqsomfdE128dv8PVJRfxQ/MrP1HInxfKvuXFXoWEMAVjlbSwKyAQUBaVZoowWYXGfUbSMr/zP1Kj183YggFE/Y6CAMWYwgjdWedN5JOuHSs9TCPoGN58y+FtHNjKe1cX8qL51QW11ENJk7BwPC5iX8I0U3hhaAvBW4/hBOz2AeM7EK9h2VSbq80npiF0S/ezg9/zwAAIABJREFUClcgePrGr2nFu1ua1xbV5cTHx9LdHx1HmV119IBoA8mx7fciuuP0jx33H+z8Gky4YhUbQ8P370pXPjnVoyf+8l3f0WevrncIqhUuY2r77e/MUh59ZlTmHVfEA/Endhv12ye7ubEKMvA6MCwSQ3RnXzzGutsjqI3/8NlOSk6Lp/2m96GTrxhHf1Hn+NtDk+ns2w6io5UYjZ7Yk9Kzk3i4jOtaG+VFtbT192L6asFmemHet3T3mZ/Q3Gnv0LzTFtKqxdsdx7WcbRxY8Hu5fdLwrllB12lkpzp1z9FrAOz0xsM/8Ug8s4ky4lE3iUWlPIkHSOGRlJ4TA7tQkarhCYmej4sWxAPxI0jKX5btpn9e8rnOWkFKWUd5UH/TMpPoiv8c7lModjNulC5g+r2ZO7hBLEYHuMNkrIriWo6Z9IPytnDP8FJMRwPf4TOof+CpJKcn8Loix1w4kkZM6MG/E4xRLPidVYu20f+uWdHCSOIer3/5CJ6JH41g5vfTN3wdFd6HA3Wv6dmJ9MCnJ3osG5++vI5env+d/uAhTZCXrvzvVBo1qad1V9QhHogfgVFCRzVGPQUL06XGCxMZL//34dR3n/aLB4BRx4vdfRv+6s+8zbgl1FjRZNVjYDpNmNWfLrr/ELp38Wz62wOH0AFH9qfElHhtlAwNghGH4KxZmU8PXvAZ3Xv2J/TT0p1BCSWCS+jeL6OFcTRTpmBbRad6i51FXU0DvffvXx1Ni9GSBMjPNRUNPOPe03NPQ0BF7HK/mzMPzlOcJwtLgeBZuighvUsSxSfGOIxUoEE5gB3I6pZCl//rMOo3ApPnAvvrprjo98TzX8bP6EMX3TeJ7lgwiyafMIi3OQxUkzE5Tb1f/8Me+tflX9KT135FpXurA9usZdPhZWJi9XsTPToNAhJ9Q3kx4AHBErE6X2f003Uq6mbr6xp4kSt39w1RSUprYyg+ypvK14jsK4iA+BVkQGQuXhckwHbJYQ/V76XlJNOtbx7FHkigxcMd+EmzSSqrWzL9+daD6L5PTqDpfxxGKHFYpEqXV7hKOp2+X7KDrj3qPfr6w616j7sS3UFwXahRIsYRrs41aZBOOzeUODeEAIFIAysVJbX05Tub+Lc6Iat0OnjuWBvdLXasiWOuI2PZ54raV5SH9dWtO6IPERA/wk0+sViLIp77DAKFmbnxt/fgDLrtzaN1jT9wP+k1ZrMXhjSfdvV+dNtbx9D4qb05bLwjTf6/vfMAkKo69/g323tlF1h6B1EBpSiKgiLSArbEFzW2mOjT9yJqxKgk2Bsi6MtLNPFh1MT4nqIiiiDFClKkKC10ls6yLLCFsvXd/3fumbkzOzM7e3dmtsz302Xm9rnnnvv9T/nOdxxqHAnGYbw1dSXXRmxNdxogma2TuDak33f8ChjQgvzSRk0zOC489W8L6KVff8FhRDg+l6VGFmxBQbPhn+/7Vk2KxELuuUcLx7zfYwVwW3bfBNA5XtdgYFUQcfC0yIIISNCBoUxMiaHqEL2dMHj61B16Z9J9r47gPolwdErXB/xO/OV1T6O7pl9Mtz05mJv31A2ofXAfCI+9ct4emnHXl2afhPt5GgqMcHbbZFXidq5D3wxR4f5S5wxz4QYjmTHbHhwRNi8/RLNf+oGmXj2Ppl77Gb3/0jra+N0hKjmqmlqCkSY4x9ol+2g7JmiCSDWt7BIe+J6NGsjhU84+PSsQBngh+oXfvxruA2nMwkdTwUsyCg0BndfpuUkhqYG4ah6qqj3pz8MpHdNwNjHxsKJqZQ4aMq4zTX1/NOV2SKbomGhLCVBFYs3fVETP3Pg5z1fua5Y6O+D6WYaA8Mh563pC534FTzIU7JJ+XeB6W78voOVzd7vu1Zw6FqHCF7z5L5ph1EruH/EhTbt9EX2/YA8PgKsoV2nlOctiIKC2954hTBzPg4IjSs0Nfc/oe/PW1ItVaH7G2CZfeYIF3Uh/PI/K8tA7gjR1RECCDDJebnuMRveeARsKi0daHD02e4xRog98dHljgxpSmlEDmfLP0dT57CzlJaYF0fjDtKVlxWfoyevn057Nx4Laud6qnffoALgCx0ZCr3qYQP7AtKiYd8PqBaXtFU+qVK37J2po25pC+utDS+nR8Z9wDeXdF9bygE9t4PDpy9hZ+d8X1lDhgVK+aS+2M2JAMcJfB3hcYrTxfsUiw3pucmGkN4Iyniz17c0VKfhJJcEOyE8YoYq3NJgvqjqXg6Jjo+hXz19IGTz/ehAvEAZgMBNSYmjyGyOp96Bc/v3csGTem1EZ4TDez928kDYsOxiUUjJecHTss1pYzodz47IcGynMyfjBKz/QscPmrHaWa1vvlzfh+dagxqFCyhTsKaYl/9jC/SaPjP2E/jJ5GS39cBeHlNHHegoKvqK9Hs4KGJOj10UqSIHS476nNEbtI71VIkX5SSPOSjUqLEokpyUQAQkBuZ1SgloyMe0IZ9zLbujJA5iam3hotKPB/X+9jDr1yeQ+I7XB/CPVP/Hf935DuzceNUrjzkPtYSRaWpYKqOgtyVAa9bY+FOAZ7tt2nL56b7sqYLAl8tzLBT9zLQxcK1E/FLUU1CZWzd9Df5u6gh4eO5em37GEz3twZzHXcPSx6Gt59YGlKvifec6IxkhCNYrcO0gfhLfxVynlQbXGsygu9B0aPlIQAQkyaKrB4DXOf0F8WVF6R5PVNb85N2wGL1Tg5UM7PkbzxsYp7yxVclbb0ZxVXUU0884v2QA2RIxxZHpOkudqJ5jfOhzgFuB1hcGUVWg7x/167lQH7oLC/zoLF1tXF9Dfn1xFf5j4Kd095D3660PLaP+2Y4YIF9Hu9Uc5DZt5tgkSDjqD2G5+yGmXzOnq+z1TceGOHwlP3mnKiICEAIw7QFTPYPRPqDM4uAT6q2cvbDETQUFo4fHy0FsjqaoGAw3VfbGBhFGsquIR7L8b8zE3OdgVEVwnJTOO4hJi3CwCvvKAMESiDQs1NPfP6zl6sb07qY1TUOAggD6jGlXQQMPgqgV76MnrF3DNxExSqX2Y+KuBgOx2iJ/mG5biGtWE1dS8H8NNy7BGTQx0EKPDmAlK/qqhLudkU8+BuZ4bmjUwdoiRdesTQ5zT6+oStTb2JwpP06xHljfI3TY+MYay2sIzzoUWKnjkhBqI3/Y1hfTZrE3OiYiCacxxKhYT81P3nVRVYeR1JAeM9IKRLv7n8qihzNzEgEbpn/DTGR8piICEiPTcBK7mNvjddSjXwgf/5zKKiW15jwvGbtjV3ejcS9opQwcDiA/z5cWLvH7pAZr3+ibrYfUE86PDscGtEsLX8jkqOYhUnKmmd19Y7awdhBpnzcT8cy4LhEyA53G6zHszlnb7ZiH23GgB+UgERAQkZGTmJgXtxe03vB3FGaXolswvn7mABxp6dl5yW7TxueBvm2n72iO2x4hg0KXns0ApVMVFsnfOQPn4z+tpz+bjZr+FP7MkhBo868qKKpcXnBd4YG50HVJvPMayEt/eXJGCCEiIcLqONgCUhhASBPN62Bk81pyITUDokwFKdEkJh7MWYnxBGI5ZU1bYijKMM2KyKzYY1mQ0LgJ/fl/B9RoKzlm4v4y++r/tWFL35LmTEFaQe1AT5GCSPh4GwpmoqNS+8xq2+XMHjhREQEKEa2pbH7m0DnTe7T+iPQ+Ea+mddbi/QaM70TkX53F0YZd44F9VGjyyt5T++dyaetdC8LK36ZTKY8PcjqxW3l4wJj6tSQOAt8/Mu77gTlvWruBfQqgn6hHU0KH8Yq91QRQy4KgSxc4qvh8YniWiGEQ6IiAhALUFhBgB/koxvtClb2RmzLkRKUBEfvH7gRRt1LrU2+16gc0IHLTknS0cP6q+xhiTWsEwWB9HjUMN9jycX+LHVNgDz27ZnJ10aHcJf7eRDYQQoJ/D4fxSH8/cwaF2ogOo6ap5RTzXRhYiICECfSDATgbDIRAeTM7U4/wcWyLUXEHT36XXdTPv2XLfpqCg+eF/p62pl0HGM8B4k5i4aLe01N8gIPU4XZ2g43/fluP03vR1zmdpJx8IocLBgTS91+prjNoHRASFDW/bFZjj5sypqrA4YTRlREBCADJeWisVasRfJvQFm07jyQwe3bHu6KAtDLy4107qz66UPI7GI/gfmq+2rzlCqxft5ZJ9YNSweMQaf57HYLFgb0lQxuxocC4ELkQAwyCeVggC+vEfPeC7DwS1D+5E97UDMJ4r3KSLDpa1+P5Jf4iAhABoBgavwfjX6LaX+oASazXR0IldbAlQcweOA8Ou667Cd+A/MwnwPuM7Jqha8MZm94P8gDSECzTmabHaBHyHkUAsqWABgVv49hbavOKwc50/OyQ0AsbLVVJ0hr2xPEFewZTUyIP+npvOl4eCXHttboiAhAiUdnk6VRvZC0fAK6lN51TPTRHD+F+dxaFbPN9hNvrV1bRrQxGtXbI/4NIfSpS5nTBjoxIhDb6fLA5eZygG7mG+cV169WeEhMbCwVPbwrPP2/NBXoFLub9aqT7uMPq43DdFFCIgIQIZLLdjKqtBfSsRmIwq3hAQhN/wlsEjAby8Y+/oyyU9rxpcg9AgG5wju+sCNbp23VWUZLemCWP59ElVEvXbZBEAEI8Xbl3MIVhQ8Wzg6YQQwX1S1RAR73kH7yvCEfnLD9gH2w/vKa73+92SEAEJIXnd0hGmqN6GBMYHAwdVp6/n1sgAaTZwVEeKjsWb6h4aX6cnJl/av/2Ea4MfEBWgY+8M/saiZEGPSm5IcyGMycrP8il/cxGfvZ6PXAgTeMQooFVVVfucEAq12qw2ZugbH1kCeRD5qOgAprb1sVMEIAISIpBRczukcqC7eucv42CUgBD2PFJB+mXkJNCom3uzQ0Eti2wsV1ZW0gcz11F1lXdDYAXnyzNqIDwa3E2MMMFTZYNibeEcxYWnORoui5PnbxXCDpcF9J9exoNxqCYqfEUzltcyg7GNBSTKfwM0nvtx47kHWgtuiYiAhJBs2wMAayglPa5BJeIWgXH7Y24/y4yk67mRuBli8/LDdBhzqdfRF4K0RJNiXEJ0LfuOpiflleO5JTBw7jemrqDKChxvo8AgNBjrq6K890hNoGU+UtQ60DnesXcWjbyxF93z8jDKbO0jzL9DzWJZV37A6eFp19ApB5ozIiAhJDktlkvPduwJJlWKdGCYE1JiqXPfLLVs2YbXVRkNB63/5oDfDk8NovImpsa6Pw/Ye+PYvVvqPzgR4Jhlc3axkOkIrnbOIwQOnrvzL0oNQOUmJXMdHFja98ikCyd05vA49702gp6aM45mfnMNTXl3FP30/v50zrC2vJ8vUAPBSf0+SuNiVUahobrS714tGhGQEIEMjSi6KPXUGwfi7IQmPlOzw0iDUbf2Nq1DrU2EV3zFp/l11kA0qZnu87QoEaqh/E3HnOsCBc8HsbTefWGNYUQwp0lgv0GoGy0Gzu/mJ1ssc31MfDRltU6mTkYBY8i4TnSdIQwPzrqcpi2eSFPfH023PXkBXfGL3tR3aBtq0zmNklJVrZ6jIuuTewGbMCshf/fY5kllZZVXd+BIwYZ1EwKjxhCQGFtNWDCGmO0skttWNShhnjssj9p0SVMvvyU52agYf/mbj9Gu9UcDculNyUhwNmsALdL5m4rczh0IeE5vP7HKnC4WtY96niDCcSsT4DsvqAcCI+8sfBkb4FCCyAydemdxv9gDr19GM7++hp7/fAI9+s4o+tVzQ2nULX2ox3m5Rs0/Tp/VSSA1VA3yWXp2Al/Tb6YwfipqIFWVrumGIw0RkBCBDBWfGMsi4jcTegGZHdOflp/GxDeeWyOTfpfk1UoLbi4yvyyfl+8m1miThqB4tk1nYL5rT6ExDP+BXcWqg70erF2yj1Yv3GsYkCo+h1A3LPpOsVA1Ae0koZqhVLwy1BiGTuhCNz82mB75+xX0xJyxNG3RRG6Cuva+/tRrUGtuknQ7N84bJIsGL0g+v2ems4BCAxw40FoQqThqPN8wIag8e9NC2vFjIb84gaY0XoSoqCh6/MMxXPKOdCAE21YfoWm3L1bpaNmmtbl9z0xutmBRMf4pO1FOhftK6dDuYjqwo5iO7C2hI/vK2PXX25zYEO2Xv72WQ3nXBc5feqycnvy3+TwlLutRgM82UvBWZtJiD+8mfCI6QGbbZGpriEXbrmnsJde6Uyq17phKyRnxfIw+j3p3wlvSn3zFHDpWcNJnwUKL4N0zLqb+l2FCtPD9tqaCCEgIQcrCtfPr9zEfRP0EBAbtipt60XUP9I/IjOkJamQPjpqjQmibpVUNkgehJ35y1zncFIUOcczDgbZpnXZcOXG4BhG6PQtjG2ol0xZdxZ45gST3XyYvo1Xz853LgT7bFgfyKilxcE82tRbpj9hSienxlJoRx9McwCmix3k51KFPJqWkK6HQoLBgp9k3GODa+L2oVSAE/7O/WEQFe0r8Th8Al+BrJ/Xj5rNA8k1LQwQkhCBDfjt7O7391Pe1jF5daBGZvuRqjqsV6SKCbPrO06vpy/e2eU1LTh6H6iBV3lDVaCBx7uc0chCLWseq/oups8dQe6MU7K+9HM8UkXafMmof+jye52vJqPSz1ATMT2uzIAQALux9hrSmsy/Ko279sjmcPoxtdAw/KH4YwWpuqg+6n8xTpI4bNY2tRi13/bcHace6QjpReIrHBtVq7vQAwT8vuqorT0PgL9+0VERAQgiSFp27aMZSyx47+EAbObykE+85m8b9um/ECwhAgMLpdyypJQKcNBAV83ug6azRRnHy30ZSz/NzPTc7wXlLik7TY9d+RsXGJ4cr8dyphaCzG9r50S+Bm4eBRGlcpzE6uXM6qBpFl7OzqV33DErPSaD0VomUlBbrfCCNkXW9CQVqFmjG3LP5GO3eeNSoqR6n4qOn6cSR01RWbPF65E/lwstZy8dD1vfVc1Br+u3rIyLyHRUBCTGlJ8rpgREfKo+q+qS0mRfhUTLln1dSq/YpjfIiNhWQS4sOldFDoz62JRJ+QboaBueu6RfTwCs7em51493nV9Oif2xVBtXR/Of5cBVWzGXU2rTpZOsJoSCengBjIzDArn2PDOrYJ5Pa98xQQQexq3kC3QwUrrxqrQ3p+0CIEtQgig6d5KbMfduO015DNPbvOEElhmBgUKG+Tx5DArHRamGeJ1AgqkiX5+ZPCNs9NyVEQMLAvRd/wBFf65PSnBm5mBdFHXplsKsimgAisZSjQfTUScM/oFPF5UE13toAXjOpH42+rY/nZgaGcdN3h2jmv39likf9DE1jo3MN20lOO3UP+MdpRI3luPho7k9CX1C3Aa3orCFtqFv/VhxaR4Nj0bFsb376hsHX5tfCwYUyNDOhf6wgv4S2rztCm1YU0O4NR3m2QA27BDtUVCEcbNGKBj9DpGFMbDTN+OYaSkhy9wqLBERAwsDDY+ZS4QGE2/Dc4h/WENO4dT03m377P5ep+ZojsK0VIKcqp4QdWGrwy69RhpTo0p/2oBsfHeizJImO8+8/3+NsFw/W9UOJ9V50E5QCpe8oyshNou4DstktttNZWSwUcD3H3Clmy1Wj5DdvNRmMtziw4zhtX1tI29Yc4SaoU6Xlxl8FVaC/Au8Kmc/FFBrApzDPE+xnpgsS07+4ipvuIg0RkDDwxM/mc8drIAPdPFEZVLk+9h3alm5/agjPkxGJNRHk1J0/FNJzN9evT6kukJQwkr0G5dJ9f/Hdlv3OM6tpybtbXUaqCaB/Kv8e3IexAk00vI23o6mGKLttErXtms4Rotv1SKecDimU0z6FBUPdr26SM4/1kQbBRF3LJRJYxPdTZRV0ZE8pR1qGYBzcVUyF+8p49r9TZuRkLRBa3PS7pcUiXM9HCwjGqeQZ6RtpiICEAXT8bl55iOwONnO+YMZfh54ZdOeLF7G/fDhe8qYGDMWkYR/QqZJyv0YCSaNdQrVhMm1src5RbENatmqXQk9/Ot6Z3p7Me30jffDKj2rBz7VDgWnjzSYotc40v3iLzX0clJIRT2mtEii7TRL3U3Q6K5tDfWAApRYJ4K2EHw50ExQLhVFzwMyAJwpPs1CgRoHmp0O7SuiMUaNQzwi/0zjGOACxcdlcmQ/Q3/MPNw+/fQU39UUaIiBh4I0py2npx7saZHT0i47P2MRYenHhRI611RiukI2FMiYOmjLh01r++W6G0GIYkbvdw72jzd+15BQRQ2gQXG/GV1dTvI+27KUf7aQ3fr/Cc3VIsN6PEg3znmowwt61AWLRa3BrGjCiHfUcmGsKhbkZthZphuPD2Azl67oImw+vxA1LD9L6bw7S/p3HqcYSRornIcdNsb+J2dHdgHcmnNz7p+EcoDHSEAEJMUjeT17bSHP+tN6t1GsHGBAcj0+EOP/3GRdR36F5YS9FNjYv3LaIR6Zb09IqGOgEzu2QQu16ZPDoZsxEmN02meeoT0qLo1mPfmcYsUMsLE4BwbHG3zNGDQQeb57t/iixb/j2IL1yz1fO5xBM3J4hak0QR1YO1UyTnpuoBuANyKEOvTMp01hOyYw37gnjK9Tv8fzNoUbXJjyvW3q8nPZsLqLta4+wy+yR/aVUZqwrKy7n0PnYn2tAZqpzWjrUM9AEO31Dze1PX8ChVyINEZAQg1IyZqp7/ZHvGiwgVlCyi4lx0C+mDqILx3cJawmzsUEtACHUrVmXjbrxefMfBtGg0Z1YLPR23WyjPI0cNHvGOvr8rX+ZAw718ezUSZNnXUbdz8upZRRh8DDK/ZkbFrpdN1D073Mum59O42nukJYdz4PwMBkZ3GXbdE3jwY0Ywa0PUn0VfLTz3kKJNR3Vd3VNjIkpNMQBrrL7t53gvooDO07QUWNdRYVZTeIkN9XBPI8zHeqfjE0OVSskuvrefjT2jrM8N7d4REBCDBuejYbhuXEhLBhXzBuKshl4M6PYCN7x3IU06MqO7KHV0kFu/ZRrdKovwiUA6p/bnhjC80D4M6zfzN5Bbz620jRqap3a3UG/NEqSg8d1qiUgeE2KDp6kh67EOBRXZ7Mn1su6/TZ8ctBA1akdnxjNIodObHg/ofmpe/8cymqb5HZtPYOin9sJOnxvpk7g+mdOVtDJ0gquWaCPYtuaAtrxQxHHGrOmAzdB8bGWhOXzOb+2PByqBjb8Z93phkcGem5t8YiAhAEMapp8xcduTSYNhQus0BDTstzy+CC6aGLXFl8TgSAvn7vbqIUs52VreuLeb5oykC65rptfAdmy6jBNu32J52qC0UOkV8yC6I3TJyvp/ks/5CjJVtQ8IOp66rpq2ep1l2oIRbdzW1H/S9tR9/NzuAkqOjbKHNujn6XreYYDb6O1AYRyy/eHOazHzh+OUvHRU+xCy31J2BW/EzrhIy/7Wt+ScD5mgyij4NZveB7dPWOY2z6RgAhIGEAz1oMj53CVH8kdrBRnw8N1GtWkcctjg+nia2A8PfdsOcDobVx6iF6+50trq4jT+P784fNp+PXdfRpi7L9v6zF6/Lr5vI9b9jcOGf6zHixC3sCuD4+dy+6kzrEgpIypqiU4OIps+x7p1LFPFg8AxcjtzDZJPEZAx4HSPw3X9vU7g4k1jdSymsMCI7XhXo6R2vu3HqdC474QXbjkmBmwEvuyt5bTVtaqPwcrLzcVXPdqvldYh7Tg58t7qOdm7m8+euo+IIceenOkuTZyEAEJE0/f8DnH3+HUDmKKc4avUcYLpdk7p11EAxBauoXWRCAg29eo0O7AU0Cuf+g8uuznPXwaZux/zDCSCNWt006DNOs/vB3Pl+0NvCqouaBzGCFmIAxZrZOoXc8M6tg7k8dXIBS5FhN1jDrWx88JKlZBUnlCRTGGmyzEAvO+7zXEE6KBPgvUjN2MIvJMjWWktvmlRVkIj+eARc/7VRvUjSNN4KiA6alROEhJj6MMo/aY1TaZ3b4xvgb9UxibBceWSEMEJEy8+tultGbRXtVsEOQUV0YAFiOK4hOi6bkFEyk5PdanEW3OIP0Q1+ipny9wN/6mIbzpDwPpkmv9N2FhPpD/vGA2VcOH1DI2B005Xfu1ot+95bskCe8vBAz09NRil2JH7eagUGJtgkLzUpXxGxDuBR3bm1cU0IalB2jnj0U8ZoZxmPZR/1OjXILN6TmaLZ4FAacqoBahShbmfqj9qxognhcGXVK0Sj/0H2ICKfRBteuWTu17ZVJHowbZukuam2u0Ff3McQ0/2a1FIwISJt6fsY4W/O1fqoQXghTnlwifxh+m/nzio7GU2TrRryFtjsBowoi/+MvFtQXE+OfWJwazO2Vd9z1lwidUkK86gfV50MkN76enPxnvvrMFXbIPJzpOlfWeKsuraJ9Ri0DocXRqo0aBgXkYxY3xFq7mOac1dStg83II8mE40Hld1RCgfsb3KDZmfE/u96X2QY0Ro+954qquauIqeLslpcRSrFHoQu0B7t+Y5EqdQ4lPuJ91c0MEJEx89X+YF2SVWghBivNLpd4qDrMNz54HXh/Bpaq6jGlzAgLy41f76Y/3fqMMhmkS9f3fPXMYnXd5e4+j3MF+sx5dTivm7a41GBHzVmCu7XAHCtTGXj8qbcAgCofzS+gAh/WAq+wJOnpANUdh0iPXg4fCwPLhYLWozqM+mwVOrbOkhb4/1wejbwsGH+NhMnOTOCouCk1ZbZI5GCQcF9Ky4ik1M8F4rrGuuUjMM7g3M4anP6qlIQISJn4wjN5//cfXnqsDxpq39TumMrz7YC7dqR6XGE1j7uhL41qYbzoEBG64f+dJuiy1OdP4IOBk78GtrYfUAiX6L97dRv98fo0y3JZzIB2f++wn3L8RaoOiaz+4DlxlEfr/pPF3YOcJ2r2hiKPLQjgQcVYbVfw+bnXDaG1z0qymLhZmNlV3ACHASr5vtV2nAd+KuS/ieSEyAApAiLiASLeYYwT9DnBMaNMFtYgU7n/A4FBvTYeuJib9rgjBRgQkDMDo6YmlnAXGOnCqMn2DAAAL/ElEQVTmd/V2mS+YMiJ4MfRjw3pUvfO6pVGPAbnUY2AOdembZRjAZDfRaUnMnvkDzZ+1ib9b0xL3+/gHY3n0uT+Qdrt+PErP3Pg5d5Lqc+j0uu+14dR7SBuvRskO3txl0cy008gTP359gDYuPciBA02NYBxw7yV1f06hMJebOm7CgKYl/Id+GgwqYeFTz8Dcm/dHjaFNl1Tq3DebHRLYg619CtcwPOEBoHwk/pFmpsZEBCQMwIAc2VtKj47/xCkgKvObrwGvNL5GGbWHGtf4AV1qQnMKSsR5XdN41rfWnVO5PRftuikZcUYJLJ5FxCU2+sotkz/+5mta98V+t3W4ZzTdPfXxOE6buiizTPTlJiDG3/UPwpOrZ72asbRRdNYEzZNi8N2+rQgSWER7/oW52kt5Fjy4dFecwbgKsxbFjw7H6lqJ+7kbG/c8ZdZzdWbGdlJxrNRvd6VBnFGDSM+G00GyUWNI49pDK6PWgAmqklJVaBkMqERNA+ntTWyFposISBhAEsNgYRAaL/M6UzdMo5NsiAC8e3QbLjr5UF3HlKFo201OjzffVWm7ffynCI9/zM2wIgkwsc+z83/CYy7qShJ4Yv328jl0pqzCItjK+A2d2IVueXyw13S11vzUd/WJqLII4XFkf5mzv2L/9uN09OBJqsZslOaxylWWT+CmDI39FpraxeifpwRCNSdxiceh6kE6VeKTYzj6L2YlhEjAlRV5FoMkM9uqPom0LMwv4gorA9zzL3/zmtZC00cEJEzAvfLhcXP5xYQYQCA69s6ijn0yuFYB33JPYNh0qVReMAWa7+67FDM8uodzZwFJiKbpi6/iEm1d6VVpPI9Hxs6l4wWnnAICYOC798umyW+OdIoE20+HuvaZk5Xs6VRceJp2byziiY22ryvkAXjO82jjixI5D95WJ2iMN82aDCwM+DTvx9yDv+vJmOAOjJpcbFyUUXuI5RkKEZ0Y+TPXyLN5XdLYkwnf4d7qLXwOzs8DEKNafm040hEBCSOnSir4hYuOVX7nniVfwT9Iry0rD9NLd37pHAmugbFCKfj5BRM4REhdQAymXj2PAwC6YTwGDA7EHNdoUsGgQ4jEpmWHaNeGIiouOk3lpyqoopxjjvP+LPQEw6l/k7vhDNcb5romLDjSJIp/Io8TQb8B/lALsvw41A5y2ifzZFMI3oj+IyzDsykmLppijHyKfoioGNVkJR3TghURkDBibf4Q6g+S7/lbFtGOdUecy4CT0/in3yV5dM8rwwJO35l3fUkbDWHwfAVgMNv3zODR22h6ZKG31ESUbuCLMqYglG8RX4IvZzH+/GleVGuZQ/VDcHIYopFqiABqDjxiul0yCyO8llKMGnByBvrPEA4+lvvPXL/f2kQq+VXwjwiI0CxALkXnMzq+tT1zFxCiGx4eyLGsAplkC6Lw3vS1tPDtLc5mHYWSB+5Ah26g1K5tttt+Dcdpl9Ul1VcWKcsKszaj/I6wg4NrsIlwbU2JUx3Rxp8KrYEw8Og3U+6tEAjUdD1rHbiGXifaIDQEERCh2bDq8z306gPfKmPokWt5/Mb8CRyKIhAgICvn5fOAQu0WGkz4J7IYqGXrdxcO9T8rk9kUFqW8yaKNP9xTUnos95d16KVcWzFJFkbLJyTXjrukhQHgnFJzEEKNCIjQLEDb++8nfkoFe0tr938YdjI9J5FeXHyV23p/wFgf3FFMU6+Z5zT2dlHHW5uX9Hr1Rfc9qHqFWodmMniLwSUb/Q8Yx4PaQ0ZuEg8CRWgNdGDHxEU5+8v4SBEGoQkhAiI0eZBD1y7eS3+671tethp8bUsxGdNDfoIgegPzejww/CM6fbLCp4BYbbUSAL1BrVA1C3hYVZufRAlJsZSSFU8ZhkDANRt/mFIXXkvok4BwIMwGxvGo10+dzNX3oC8i3ndC00YERGjyYLDf8zcvpt2bjpqledc2ZV8dNP7OvjTxnnNcGwLkkXGf8Mx6GOugagfq5Nqu66Yg1ACioqIoNl5FbeXwGskxPKNgTvsUbmbCX27HVMponUjxXkJ786um/WVFHIQWgAiI0KRB09XCv2+h919aZxpg1zZrTeSxD8bweJr62uQX71hCW78vMD2tXOsxDiI7L4XadkujTn2y2CurTWeIg5pyFp3s+ORQHRAYcW8VIhAREKFJgxHjk0fOoZMlaGYyJwg30ca68zlZ9PDbo+otHmDVgj1UevwMh9fAAE/l1RTHtQuE+QaqmcpdGNz6PAQhQhEBEZokyJblp6rolf/82qghHHb2N1hRNZAaumnKYJ7GtqHgXEosxL1VEAIhAI95QQg/MOLffrSTR55zxcMTs/kKLq9nX9S2lrjYAdfkZikRD0EICBEQoUny3dxd9N6La9WCjljrAfohhk7oyoPmxOgLQvgRAREYdCLzPCMeYyzCCTchGddf9tEueufZ1VRVaf4Wy7zlgPsjjE+Mkxh/51kBjTwXBCH4yKsnMGi6WfzOVp7YqDFEBOJxurSSZr/8A735+Er+7rXaQWo1nG7PG9mBx1cIgtA4SCe6wCAXlJ04Q78b/TENu6YbXf2bfhxkL9RNQyr31dDBncX08j1f0dH9ZbxedZC77er6LcaX9FYJ9Rp5LghC8BEBEZwgK+xcX0TTbl3E4bwvmtCFxv36bA6toQbSBU9NlLcT0eH8EnrnmdW0dXUBz9HB7rGWfbyBzu5fPnsBDRnTSU3QJAhCoyACIriB5qu5r22kua+uZ++n5PQ4Ou/y9jTg8g7Ue3BrHomtQnYg2wTmsaTFQn/HZFAblh6kFZ/m08bvDvJkW7rG4a3m4QLBBh006pY+9NP7+3tuFAQhzIiACF5B1Nu1S/a7zYWBuSMuGN+Z+o9oR206p/Ey5rxGYEA9hkKD2grWoVaB8RyYTGvv1mMcAXfN4r3cQe6c3pUHeZhfPVCCorZEx0RT9/6taNJrw/maMpBPEBoXERChFsgS8Mh65oaFtG/bMaqGNxTbage7XWDa0xjDmGPmv7iEaO7IVvO2x3G/yemTlXTyRDkdPVBKxwpOUcWZKqqsrKaaKiUIHFnWYvt95UAtHiwUxl//4Xl098xLnNsEQWhcREAEr3Dtobya/nvSN7Rx2UFVC+AmJhVxlo272pOcTVnqq3M/FaDQck7zH//NVCbQDHxERRmCVUXXTupPV97axxl7ShCExkcERPCJLv3PmrKcls3Z6S4eIco1Vm3A9TBB1I2PDqRzhuW5NgiC0CQQARECYtnHu+gfT39P5aeruKMds29ra9+QHGQVDC1OOmz60Ku60g0Pn8+d+TJYUBCaHiIgQkCg3+LY4ZP01uMraePSQ4aRN9bB4PNWdKDXv1nJ2QwG0UCTV1UNd44Pu64bjb61D9c+pLlKEJouIiBCwOgmLYzZWPrRTlq9cB+dOVlBUABM2KqMvdkRoqsT5hosO8WgRke9VYsJKbHUa2Br7iTve3EeDxLENhEPQWjaiIAI9UYLCebq2PTdIdq8/BCPJC8rqaDTpRW8vrK8iqoqICsqeyHwYVx8DMUnxVBiaiylZydQp7OyqMd5OdTj/ByKjYtWHfUBji0RBKHxEQERggKauNBXgezE0856m3oWtQrM5scz+mEch2u7IAjNDxEQQRAEwRbi2yIIgiDYQgREEARBsIUIiCAIgmALERBBEATBFiIggiAIgi1EQARBEARbiIAIgiAIthABEQRBEGwhAiIIgiDYQgREEARBsIUIiCAIgmALERBBEATBFiIggiAIgi1EQARBEARbiIAIgiAIthABEQRBEGwhAiIIgiDYQgREEARBsIUIiCAIgmALERBBEATBFiIggiAIgi1EQARBEARbiIAIgiAIthABEQRBEGwhAiIIgiDYQgREEARBsIUIiCAIgmALERBBEATBFiIggiAIgi1EQARBEARbiIAIgiAIthABEQRBEGwhAiIIgiDYQgREEARBsIUIiCAIgmALERBBEATBFiIggiAIgi1EQARBEARbiIAIgiAIthABEQRBEGwhAiIIgiDYQgREEARBsIUIiCAIgmALERBBEATBFiIggiAIgi1EQARBEARbiIAIgiAIthABEQRBEGwhAiIIgiDY4v8Bl5iHM1QNl70AAAAASUVORK5CYII=;" vertex="1" parent="1">
          <mxGeometry x="490" y="450" width="120" height="120" as="geometry" />
        </mxCell>
        <mxCell id="cir0vFDCaRxPxwiS-EN_-5" value="" style="verticalLabelPosition=bottom;html=1;verticalAlign=top;align=center;strokeColor=none;fillColor=#00BEF2;shape=mxgraph.azure.user;" vertex="1" parent="1">
          <mxGeometry x="90" y="454" width="120" height="100" as="geometry" />
        </mxCell>
        <mxCell id="cir0vFDCaRxPxwiS-EN_-9" style="edgeStyle=orthogonalEdgeStyle;rounded=0;orthogonalLoop=1;jettySize=auto;html=1;entryX=-0.017;entryY=0.45;entryDx=0;entryDy=0;entryPerimeter=0;" edge="1" parent="1" source="cir0vFDCaRxPxwiS-EN_-5" target="cir0vFDCaRxPxwiS-EN_-4">
          <mxGeometry relative="1" as="geometry" />
        </mxCell>
      </root>
    </mxGraphModel>
  </diagram>
</mxfile>
